<svg xmlns="http://www.w3.org/2000/svg" xmlns:xlink="http://www.w3.org/1999/xlink"><defs><style>
    .sprite-symbol-usage {display: none;}
    .sprite-symbol-usage:target {display: inline;}
  </style><symbol viewBox="0 0 37 37" fill="none" id="icon-accept">
<path fill-rule="evenodd" clip-rule="evenodd" d="M18.1094 33.2314C26.3936 33.2314 33.1094 26.5157 33.1094 18.2314C33.1094 9.94717 26.3936 3.23145 18.1094 3.23145C9.8251 3.23145 3.10938 9.94717 3.10938 18.2314C3.10938 26.5157 9.8251 33.2314 18.1094 33.2314ZM18.1094 36.2314C28.0505 36.2314 36.1094 28.1726 36.1094 18.2314C36.1094 8.29032 28.0505 0.231445 18.1094 0.231445C8.16825 0.231445 0.109375 8.29032 0.109375 18.2314C0.109375 28.1726 8.16825 36.2314 18.1094 36.2314Z" fill="#D2D4D8" />
<path fill-rule="evenodd" clip-rule="evenodd" d="M28.198 13.2645L15.6863 26.4347L8.60059 18.6404L10.8204 16.6224L15.7347 22.0281L26.023 11.1982L28.198 13.2645Z" fill="#D2D4D8" />
</symbol><symbol viewBox="0 0 16 17" fill="none" id="icon-accept-second">
<path d="M3.82422 8.46824L7.45175 11.8968L12.9671 5.03967" stroke="white" />
</symbol><symbol viewBox="0 0 15 14" fill="none" id="icon-arrow-down">
<path fill-rule="evenodd" clip-rule="evenodd" d="M3.40524 5.14645C3.6005 4.95118 3.91708 4.95118 4.11234 5.14645L7.75879 8.79289L11.4052 5.14645C11.6005 4.95118 11.9171 4.95118 12.1123 5.14645C12.3076 5.34171 12.3076 5.65829 12.1123 5.85355L8.11234 9.85355C7.91708 10.0488 7.6005 10.0488 7.40524 9.85355L3.40524 5.85355C3.20997 5.65829 3.20997 5.34171 3.40524 5.14645Z" fill="#333333" />
</symbol><symbol viewBox="0 0 18 18" id="icon-attention">
<path d="M17.0246 16.7632H0.974984C0.621239 16.7632 0.305259 16.5799 0.129551 16.2727C-0.0457563 15.9651 -0.0430166 15.5998 0.136986 15.2948L8.16156 1.715C8.33863 1.41565 8.65168 1.23682 8.99993 1.23682C9.348 1.23682 9.66124 1.41565 9.8383 1.715L17.8629 15.2948C18.0427 15.5998 18.0456 15.9651 17.8703 16.2727C17.6938 16.5799 17.3777 16.7632 17.0241 16.7632H17.0246ZM9.00006 1.93719C8.9535 1.93719 8.83708 1.9501 8.76586 2.07122L0.741284 15.651C0.668697 15.7741 0.715653 15.8831 0.739132 15.9242C0.763002 15.9658 0.833046 16.0615 0.975486 16.0615H17.0251C17.1676 16.0615 17.2376 15.9658 17.2615 15.9242C17.285 15.8831 17.3319 15.7737 17.2593 15.651L9.23477 2.07122C9.16355 1.9503 9.04713 1.93719 9.00057 1.93719H9.00006Z" />
<path d="M8.99957 12.9064C8.62235 12.9064 8.3042 12.6239 8.25977 12.249L7.65146 7.07644C7.627 6.86494 7.69352 6.65285 7.83479 6.49397C7.97566 6.33568 8.17875 6.24451 8.39121 6.24451H9.6082C9.82029 6.24451 10.0238 6.33568 10.1646 6.49417C10.3059 6.65304 10.3728 6.86552 10.348 7.07624L9.73929 12.2483C9.69487 12.6236 9.37674 12.9061 8.99949 12.9061L8.99957 12.9064ZM8.39125 6.94596C8.37834 6.94596 8.36738 6.95085 8.35858 6.96064C8.34978 6.97042 8.34625 6.98196 8.34762 6.99507L8.95594 12.1666C8.96161 12.2105 9.03733 12.2109 9.04281 12.1663L9.65113 6.99468C9.6525 6.98196 9.64898 6.97081 9.64017 6.96064C9.63215 6.95085 9.6208 6.94596 9.60789 6.94596H8.39125Z" />
<path d="M8.99911 15.3608C8.41919 15.3608 7.94727 14.8889 7.94727 14.309C7.94727 13.729 8.41919 13.2571 8.99911 13.2571C9.57903 13.2571 10.051 13.729 10.051 14.309C10.051 14.8889 9.57903 15.3608 8.99911 15.3608ZM8.99911 13.9583C8.80561 13.9583 8.6485 14.1155 8.6485 14.309C8.6485 14.5025 8.80561 14.6596 8.99911 14.6596C9.19262 14.6596 9.34973 14.5025 9.34973 14.309C9.34973 14.1155 9.19262 13.9583 8.99911 13.9583Z" />
</symbol><symbol viewBox="0 0 16 16" fill="none" id="icon-attention-fill">
<path d="M15.133 14.9008H0.866653C0.552212 14.9008 0.271342 14.7379 0.115157 14.4648C-0.0406723 14.1914 -0.038237 13.8667 0.121765 13.5956L7.25472 1.52466C7.41212 1.25857 7.69038 1.09961 7.99994 1.09961C8.30934 1.09961 8.58777 1.25857 8.74516 1.52466L15.8781 13.5956C16.0379 13.8667 16.0406 14.1915 15.8847 14.4648C15.7279 14.7379 15.4473 14.9008 15.133 14.9008Z" fill="#F25220" />
<path d="M8.00002 10.9998C7.66471 10.9998 7.38191 10.7487 7.34242 10.4155L6.80169 5.81762C6.77995 5.62962 6.83908 5.4411 6.96465 5.29987C7.08987 5.15917 7.2704 5.07812 7.45925 5.07812H8.54102C8.72954 5.07812 8.91042 5.15917 9.03562 5.30004C9.16119 5.44126 9.22066 5.63014 9.19858 5.81744L8.65754 10.4148C8.61806 10.7484 8.33535 10.9998 8.00002 10.9998Z" fill="white" />
<path d="M7.99993 13.6541C7.48445 13.6541 7.06496 13.2346 7.06496 12.7192C7.06496 12.2037 7.48444 11.7842 7.99993 11.7842C8.51542 11.7842 8.9349 12.2037 8.9349 12.7192C8.9349 13.2346 8.51542 13.6541 7.99993 13.6541Z" fill="white" />
</symbol><symbol viewBox="0 0 24 24" id="icon-basket">
<path fill-rule="evenodd" clip-rule="evenodd" d="M0.431641 0.583374H2.84904C3.62555 0.583374 4.3092 1.09507 4.52808 1.84009L5.52988 5.25004H19.8546C21.018 5.25004 21.8575 6.36408 21.5368 7.48237L19.6254 14.149C19.4102 14.8995 18.7239 15.4167 17.9432 15.4167H8.26316C7.48665 15.4167 6.803 14.905 6.58412 14.16L3.0889 2.26291C3.05764 2.15647 2.95997 2.08337 2.84904 2.08337H0.431641V0.583374ZM5.97056 6.75004L8.0233 13.7372C8.05457 13.8436 8.15223 13.9167 8.26316 13.9167H17.9432C18.0547 13.9167 18.1527 13.8428 18.1835 13.7356L20.0949 7.06894C20.1408 6.90919 20.0208 6.75004 19.8546 6.75004H5.97056Z" />
<path fill-rule="evenodd" clip-rule="evenodd" d="M9.84814 21.1667C10.1243 21.1667 10.3481 20.9429 10.3481 20.6667C10.3481 20.3906 10.1243 20.1667 9.84814 20.1667C9.572 20.1667 9.34814 20.3906 9.34814 20.6667C9.34814 20.9429 9.572 21.1667 9.84814 21.1667ZM9.84814 22.6667C10.9527 22.6667 11.8481 21.7713 11.8481 20.6667C11.8481 19.5622 10.9527 18.6667 9.84814 18.6667C8.74358 18.6667 7.84814 19.5622 7.84814 20.6667C7.84814 21.7713 8.74358 22.6667 9.84814 22.6667Z" />
<path fill-rule="evenodd" clip-rule="evenodd" d="M16.5151 21.1667C16.7913 21.1667 17.0151 20.9429 17.0151 20.6667C17.0151 20.3906 16.7913 20.1667 16.5151 20.1667C16.239 20.1667 16.0151 20.3906 16.0151 20.6667C16.0151 20.9429 16.239 21.1667 16.5151 21.1667ZM16.5151 22.6667C17.6197 22.6667 18.5151 21.7713 18.5151 20.6667C18.5151 19.5622 17.6197 18.6667 16.5151 18.6667C15.4106 18.6667 14.5151 19.5622 14.5151 20.6667C14.5151 21.7713 15.4106 22.6667 16.5151 22.6667Z" />
<path fill-rule="evenodd" clip-rule="evenodd" d="M7.09847 13.9167V16.3334C7.09847 17.2999 7.88197 18.0834 8.84847 18.0834H19.2651V16.5834H8.84847C8.7104 16.5834 8.59847 16.4715 8.59847 16.3334V13.9167H7.09847Z" />
</symbol><symbol viewBox="0 0 23 23" id="icon-camera">
<path fill-rule="evenodd" clip-rule="evenodd" d="M11.7498 9.77027C10.2975 9.77027 9.11414 10.9571 9.11414 12.4286C9.11414 13.9001 10.2975 15.0869 11.7498 15.0869C13.2021 15.0869 14.3855 13.9001 14.3855 12.4286C14.3855 10.9571 13.2021 9.77027 11.7498 9.77027ZM8.125 12.4286C8.125 10.4175 9.74454 8.78113 11.7498 8.78113C13.7551 8.78113 15.3747 10.4175 15.3747 12.4286C15.3747 14.4396 13.7551 16.076 11.7498 16.076C9.74454 16.076 8.125 14.4396 8.125 12.4286Z" />
<path fill-rule="evenodd" clip-rule="evenodd" d="M7.75651 7.617H4.14286V17.7621H19.3571V7.617H15.7435L15.0841 5.47135H8.41581L7.75651 7.617ZM7.57139 4.32849H15.9286L16.5879 6.47414H20.5V18.9049H3V6.47414H6.91209L7.57139 4.32849Z" />
<path d="M5.39062 8.42737H7.67634V9.57023H5.39062V8.42737Z" />
<path d="M17.2148 8.42737H18.3577V9.57023H17.2148V8.42737Z" />
</symbol><symbol viewBox="0 0 22 19" id="icon-cascad">
<path fill-rule="evenodd" clip-rule="evenodd" d="M15.1204 3.07559C13.1165 2.44832 10.9836 3.56428 10.3563 5.56815C9.72903 7.57202 10.845 9.70498 12.8489 10.3322C14.8527 10.9595 16.9857 9.84356 17.613 7.83969C18.2402 5.83582 17.1243 3.70286 15.1204 3.07559ZM8.92479 5.12005C9.79954 2.32558 12.774 0.769336 15.5685 1.64408C18.363 2.51883 19.9192 5.49332 19.0445 8.28779C18.1697 11.0823 15.1952 12.6385 12.4008 11.7638C9.60628 10.889 8.05004 7.91451 8.92479 5.12005Z" />
<path fill-rule="evenodd" clip-rule="evenodd" d="M16.6558 10.6544L20.1415 17.3169L18.8124 18.0122L15.3267 11.3498L16.6558 10.6544Z" />
<path fill-rule="evenodd" clip-rule="evenodd" d="M5.46761 4.95001H0.134277V3.45001H5.46761V4.95001Z" />
<path fill-rule="evenodd" clip-rule="evenodd" d="M7.60094 11.35H0.134277V9.85001H7.60094V11.35Z" />
<path fill-rule="evenodd" clip-rule="evenodd" d="M10.8009 17.75H0.134277V16.25H10.8009V17.75Z" />
</symbol><symbol viewBox="0 0 20 20" fill="none" id="icon-category-carpet">
<path d="M3.06837 0H2.2019V1.90197H3.06837V0Z" fill="#6DA1BD" />
<path d="M17.7984 0H16.9319V1.90197H17.7984V0Z" fill="#6DA1BD" />
<path d="M10.4334 0H9.56689V1.90197H10.4334V0Z" fill="#6DA1BD" />
<path d="M7.98121 0H7.11475V1.90197H7.98121V0Z" fill="#6DA1BD" />
<path d="M5.52906 0H4.6626V1.90197H5.52906V0Z" fill="#6DA1BD" />
<path d="M12.8855 0H12.019V1.90197H12.8855V0Z" fill="#6DA1BD" />
<path d="M15.3462 0H14.4797V1.90197H15.3462V0Z" fill="#6DA1BD" />
<path d="M10.0059 7.2542L7.16919 9.99731L10.0059 12.7404L12.8426 9.99731L10.0059 7.2542Z" fill="#6DA1BD" />
<path d="M17.7983 1.9021H2.2019V18.0981V20.0001H3.07704V18.0981H4.66267V20.0001H5.52914V18.0981H7.11477V20.0001H7.98124V18.0981H9.56687V20.0001H10.4333V18.0981H12.019V20.0001H12.8854V18.0981H14.4711V20.0001H15.3375V18.0981H16.9232V20.0001H17.7896V18.0981V1.9021H17.7983ZM16.4986 16.7408H3.42362V15.9029H16.4986V16.7408ZM5.93638 9.99593L10.0001 6.06632L14.0638 9.99593L10.0001 13.9255L5.93638 9.99593ZM16.4986 4.33193H3.42362V3.49405H16.4986V4.33193Z" fill="#6DA1BD" />
</symbol><symbol viewBox="0 0 20 20" fill="none" id="icon-category-door">
<g clip-path="url(#icon-category-door_clip0_878_31121)">
<path d="M12.8992 0.00766661L2.46243 0.982732C2.32454 1.01607 2.22974 1.12441 2.22974 1.25775V18.7422C2.22974 18.8756 2.32454 18.9839 2.46243 19.0173L12.8992 19.9923C13.0888 20.034 13.2698 19.9007 13.2698 19.7173V0.282685C13.2698 0.0993394 13.0888 -0.0340028 12.8992 0.00766661ZM10.6757 10.8501C10.3137 10.8501 10.0207 10.4667 10.0207 10C10.0207 9.5333 10.3137 9.14994 10.6757 9.14994C11.0377 9.14994 11.3307 9.5333 11.3307 10C11.3307 10.4667 11.0377 10.8501 10.6757 10.8501Z" fill="#6DA1BD" />
<path d="M17.0705 1.11597H14.1575V1.86602H16.812V18.2754H14.123V19.0255H17.0705C17.3463 19.0255 17.5704 18.7921 17.5704 18.5088V1.63267C17.5704 1.34932 17.3463 1.11597 17.0705 1.11597Z" fill="#6DA1BD" />
</g>
<defs>

</defs>
</symbol><clipPath id="icon-category-door_clip0_878_31121">
<rect width="20" height="20" fill="white" />
</clipPath><symbol viewBox="0 0 20 20" fill="none" id="icon-category-dye">
<g clip-path="url(#icon-category-dye_clip0_878_31095)">
<path d="M10.1191 0.0239258V0.766798L11.3086 0.806738V4.85659C11.3086 5.17611 11.0443 5.43971 10.7056 5.43971C10.3669 5.43971 10.1026 5.18409 10.1026 4.85659V3.77823C10.1026 3.45871 9.83825 3.19511 9.49957 3.19511C9.16089 3.19511 8.92134 3.44274 8.90482 3.74628V6.6938C8.90482 6.6938 8.90482 6.70978 8.90482 6.72576V6.94143C8.90482 7.26094 8.64048 7.52454 8.3018 7.52454C7.96312 7.52454 7.69879 7.26893 7.69879 6.94143V4.82464C7.69879 4.82464 7.69879 4.82464 7.69879 4.81665C7.69053 4.50513 7.42619 4.24951 7.10403 4.24951C6.78187 4.24951 6.50101 4.50513 6.50101 4.83263V5.59148C6.50101 5.91099 6.23668 6.17459 5.898 6.17459C5.55932 6.17459 5.29498 5.91898 5.29498 5.59148V3.47469C5.29498 3.15517 5.02239 2.89157 4.69197 2.89157C4.36155 2.89157 4.08895 2.62797 4.08895 2.30846V0.0239258H2.40381V6.66185C4.23764 8.73071 6.94708 10.0487 9.97868 10.0487C13.0103 10.0487 15.728 8.73071 17.5536 6.66185V0.0239258H10.1191Z" fill="#6DA1BD" />
<path d="M2.40381 7.83594L2.40381 19.9998H17.5536L17.5536 7.83594C15.6041 9.69711 12.9277 10.8474 9.97868 10.8474C7.02969 10.8474 4.35329 9.69711 2.40381 7.83594Z" fill="#6DA1BD" />
<path d="M9.97868 10.0488C4.47719 10.0488 0 5.71932 0 0.399394V0H19.9574V0.399394C19.9574 5.71932 15.4802 10.0488 9.97868 10.0488ZM0.842571 0.798788C1.05734 5.48767 5.07194 9.24197 9.97868 9.24197C14.8854 9.24197 18.9 5.49566 19.1148 0.798788H0.842571Z" fill="#6DA1BD" />
</g>
<defs>

</defs>
</symbol><clipPath id="icon-category-dye_clip0_878_31095">
<rect width="20" height="20" fill="white" />
</clipPath><symbol viewBox="0 0 20 20" fill="none" id="icon-category-facade">
<g clip-path="url(#icon-category-facade_clip0_878_31081)">
<path fill-rule="evenodd" clip-rule="evenodd" d="M19.8242 3.38311C19.8242 1.51898 18.2572 0.00249706 16.3299 0H3.66965C1.74268 0.00251719 0.175781 1.51898 0.175781 3.38311C0.175781 3.46901 0.179361 3.55491 0.186031 3.64049L0.184404 3.64065C0.197256 5.31505 1.53019 6.62339 3.23099 6.62339C4.91081 6.62339 6.27775 5.25008 6.27775 3.56231C6.27775 2.34307 5.29182 1.35113 4.08023 1.35113C2.86847 1.35113 1.88271 2.3429 1.88271 3.56231C1.88271 4.31292 2.48776 4.92365 3.23112 4.92365C3.97448 4.92365 4.57953 4.31292 4.57953 3.56231C4.57953 3.28039 4.35566 3.05086 4.08023 3.05086C3.80479 3.05086 3.58093 3.2804 3.58093 3.56231H2.88118C2.88118 2.90736 3.41904 2.3742 4.08023 2.3742C4.74142 2.3742 5.27928 2.9072 5.27928 3.56231C5.27928 4.68591 4.36053 5.60032 3.23129 5.60032C2.10204 5.60032 1.18329 4.68595 1.18329 3.56231C1.18329 1.99239 2.44773 0.713494 4.01434 0.677931L4.01385 0.667233H16.1597V0.686584C17.6453 0.808827 18.817 2.05058 18.817 3.56215C18.817 4.68574 17.8983 5.60015 16.769 5.60015C15.6398 5.60015 14.721 4.68578 14.721 3.56215C14.721 2.91493 15.2591 2.38821 15.9201 2.38821C16.5816 2.38821 17.1191 2.91477 17.1191 3.56215H16.4194C16.4194 3.28337 16.2004 3.06483 15.9201 3.06483C15.6404 3.06483 15.4208 3.28335 15.4208 3.56215C15.4208 4.31275 16.0258 4.92349 16.7692 4.92349C17.513 4.92349 18.1176 4.31275 18.1176 3.56215C18.1176 2.3429 17.1317 1.35096 15.9201 1.35096C14.7083 1.35096 13.7226 2.34274 13.7226 3.56215C13.7226 5.24992 15.0895 6.62322 16.7693 6.62322C18.4703 6.62322 19.8032 5.3146 19.8161 3.64048L19.8146 3.64033C19.8205 3.55505 19.8242 3.46917 19.8242 3.38311Z" fill="#6DA1BD" />
<path fill-rule="evenodd" clip-rule="evenodd" d="M14.2598 6.32953C13.5022 5.64501 13.0225 4.65984 13.0225 3.56218C13.0225 2.67158 13.4297 1.87409 14.0678 1.34375H5.93194C6.57002 1.87393 6.97727 2.67158 6.97727 3.56218C6.97727 4.65513 6.50171 5.637 5.74927 6.32103C5.78213 6.3193 5.81386 6.31316 5.84672 6.31316C6.4067 6.31316 6.90358 6.57432 7.21791 6.97629C7.53321 6.5748 8.03008 6.31316 8.58731 6.31316C9.14683 6.31316 9.64333 6.57385 9.95783 6.97533C10.2735 6.57446 10.7697 6.31316 11.3264 6.31316C11.8804 6.31316 12.3722 6.56866 12.6872 6.96292C13.003 6.56536 13.4985 6.31316 14.0528 6.31316C14.1228 6.31301 14.1911 6.32134 14.2599 6.32952L14.2598 6.32953Z" fill="#6DA1BD" />
<path fill-rule="evenodd" clip-rule="evenodd" d="M5.84639 7C5.58266 7 5.32852 7.10211 5.14014 7.27673L5.14014 20.4286H6.86681L6.86681 7.98678C6.86681 7.44259 6.40916 7 5.84639 7Z" fill="#6DA1BD" />
<path fill-rule="evenodd" clip-rule="evenodd" d="M11.3266 6.98975C10.7721 6.98975 10.3158 7.42476 10.3071 7.96046C10.3071 7.96565 10.3076 7.971 10.3076 7.97619L10.3076 20H12.349V7.97619H12.3472C12.347 7.43231 11.8892 6.98975 11.3266 6.98975Z" fill="#6DA1BD" />
<path fill-rule="evenodd" clip-rule="evenodd" d="M13.0483 7.82626V20H14.6768L14.6769 7.20159C14.4983 7.06692 14.2811 6.98999 14.0528 6.98999C13.5454 6.98999 13.1245 7.34703 13.0483 7.82626Z" fill="#6DA1BD" />
<path fill-rule="evenodd" clip-rule="evenodd" d="M8.58706 6.98975C8.03083 6.98975 7.57315 7.42709 7.56681 7.96501L7.56665 20H9.60748V7.97629C9.60748 7.43241 9.14983 6.98975 8.58706 6.98975Z" fill="#6DA1BD" />
</g>
<defs>

</defs>
</symbol><clipPath id="icon-category-facade_clip0_878_31081">
<rect width="20" height="20" fill="white" />
</clipPath><symbol viewBox="0 0 20 20" fill="none" id="icon-category-furniture">
<path d="M18.9515 4.62652C18.5658 4.52924 18.1551 4.57788 17.803 4.77244C17.4593 4.9751 17.2078 5.29125 17.0988 5.66415L15.506 11.9872C15.3886 12.4898 15.0952 12.9357 14.6761 13.2518C14.2569 13.568 13.7455 13.7382 13.209 13.7382H6.77912C6.25099 13.7382 5.73123 13.568 5.31207 13.2518C4.89291 12.9357 4.5995 12.4898 4.48214 11.9872L2.88934 5.66415C2.81389 5.3561 2.62946 5.07238 2.36958 4.87782C2.10971 4.68327 1.78276 4.57788 1.45582 4.58599C1.25462 4.58599 1.05343 4.62652 0.860616 4.69137C0.542057 4.8535 0.282179 5.11291 0.139665 5.42906C-0.0112317 5.74522 -0.0363811 6.1019 0.0474504 6.44237L1.64025 12.7654C2.05941 14.3462 3.24143 15.6351 4.81747 16.235L3.63544 18.8777C3.56838 19.048 3.63544 19.2425 3.78634 19.3398H4.0043C4.1049 19.3398 4.19711 19.3074 4.26418 19.2344L6.48571 16.5187H13.5108L15.7323 19.2344C15.7994 19.3074 15.8916 19.3479 15.9922 19.3398H16.2102C16.3611 19.2344 16.4281 19.048 16.3611 18.8777L15.179 16.235C16.7635 15.6513 17.9455 14.3543 18.3563 12.7654L19.9491 6.44237C20.0497 6.06947 19.9994 5.68036 19.8149 5.348C19.6305 5.00752 19.3203 4.75622 18.9515 4.62652Z" fill="#6DA1BD" />
<path d="M3.65226 5.51822L5.24506 11.8413C5.32889 12.1818 5.53008 12.4817 5.80673 12.6925C6.08337 12.9032 6.43546 13.0248 6.79594 13.0248H13.2258C13.5863 13.0248 13.93 12.9113 14.215 12.6925C14.5001 12.4736 14.6929 12.1818 14.7767 11.8413L16.403 5.51822C16.512 4.93455 16.8976 4.43195 17.4342 4.15633L18.0629 3.90503C18.2306 3.88881 18.3563 3.751 18.3563 3.58077V3.43485C18.3563 3.05384 18.197 2.68905 17.9204 2.42154C17.6437 2.15402 17.2665 2 16.8725 2H3.1325C2.73849 2 2.36125 2.15402 2.08461 2.42154C1.80796 2.68905 1.64868 3.05384 1.64868 3.43485V3.58077C1.64868 3.7429 1.77443 3.88071 1.94209 3.90503L2.46185 4.08337C3.04867 4.3752 3.48459 4.89402 3.64387 5.51011L3.65226 5.51822Z" fill="#6DA1BD" />
</symbol><symbol viewBox="0 0 20 20" fill="none" id="icon-category-lepnina">
<g clip-path="url(#icon-category-lepnina_clip0_878_31076)">
<path d="M1 2H1.00881C1.00881 3.03164 1.4142 4.01919 2.14567 4.74222C2.87714 5.47407 3.86418 5.87967 4.88647 5.87967V7.42272H6.42872C8.0591 7.42272 9.62779 8.07521 10.7823 9.22147C11.9368 10.3766 12.5801 11.9372 12.5801 13.5685V15.1115H14.1223C14.1223 15.6229 14.2193 16.1255 14.422 16.6017C14.6159 17.069 14.9067 17.501 15.2592 17.8626C15.9907 18.5944 16.9777 19 18 19V3.76349C18 2.79357 17.2068 2 16.2374 2H1Z" fill="#6DA1BD" />
<path d="M20 0H0V1H20V0Z" fill="#6DA1BD" />
<path d="M20 0H19V20H20V0Z" fill="#6DA1BD" />
</g>
<defs>

</defs>
</symbol><clipPath id="icon-category-lepnina_clip0_878_31076">
<rect width="20" height="20" fill="white" />
</clipPath><symbol viewBox="0 0 20 20" fill="none" id="icon-category-plaster">
<g clip-path="url(#icon-category-plaster_clip0_878_31101)">
<path d="M1 8L0 1H20L19 8H1Z" fill="#6DA1BD" />
<path d="M1 9V10.457C1 10.9133 1.43029 11.2873 2.00307 11.2873H7.48218C7.94616 11.2873 8.38739 11.4498 8.69076 11.7319C8.99729 12.0162 9.13181 12.3923 9.06585 12.7615C9.06007 12.7798 8.74777 14.4742 8.62759 15.036C8.51578 15.5635 8.45878 16.0769 8.45878 16.5606C8.45878 18.5877 9.2721 20 9.99956 20C10.727 20 11.5376 18.5877 11.5376 16.5606C11.5376 16.086 11.4834 15.5885 11.3801 15.0794C11.2598 14.5085 10.9447 12.7842 10.9419 12.768C10.8701 12.3988 11.0051 12.0207 11.3114 11.7342C11.6151 11.4499 12.0591 11.2873 12.5231 11.2873H17.9706C18.5434 11.2873 19 10.9133 19 10.457V9.00004L1 9Z" fill="#6DA1BD" />
<path d="M0 0H1V1H0V0Z" fill="#6DA1BD" />
<path d="M4 0H5V1H4V0Z" fill="#6DA1BD" />
<path d="M8 0H9V1H8V0Z" fill="#6DA1BD" />
<path d="M12 0H13V1H12V0Z" fill="#6DA1BD" />
<path d="M16 0H17V1H16V0Z" fill="#6DA1BD" />
<path d="M19 0H20V1H19V0Z" fill="#6DA1BD" />
</g>
<defs>

</defs>
</symbol><clipPath id="icon-category-plaster_clip0_878_31101">
<rect width="20" height="20" fill="white" />
</clipPath><symbol viewBox="0 0 20 20" fill="none" id="icon-category-wallpaper">
<g clip-path="url(#icon-category-wallpaper_clip0_878_31089)">
<path d="M15.6454 0H0V3.91674H15.6454V0Z" fill="#6DA1BD" />
<path d="M3.73751 10.7921C2.23381 10.7417 1.14733 9.52297 0.860495 8.31265C0.591047 7.17797 1.00826 6.19458 1.95567 5.74071C2.68579 5.3877 3.35506 5.33727 3.94611 5.57261C4.85007 5.94243 5.18036 6.8922 5.19774 6.93422C5.22382 7.01827 5.47588 7.79154 5.08475 8.3967C4.93698 8.62363 4.62408 8.91781 4.02434 8.98505C3.12038 9.09431 2.68579 8.2286 2.59887 7.74951C2.55541 7.52258 2.71186 7.30405 2.94655 7.26202C3.18123 7.22 3.40721 7.37129 3.45067 7.59822C3.45067 7.59822 3.55498 8.19498 3.91134 8.14455C4.23294 8.11093 4.31117 7.98485 4.33724 7.94283C4.48501 7.71589 4.39809 7.31245 4.36332 7.18637C4.36332 7.18637 4.13733 6.556 3.59844 6.33747C3.25076 6.20299 2.83355 6.25342 2.33811 6.48876C1.50369 6.8922 1.61669 7.75792 1.70361 8.11933C1.9209 9.00186 2.72925 9.94322 3.80704 9.94322C4.62408 9.94322 5.3455 9.60702 5.78879 9.02707C6.25815 8.4051 6.36245 7.5646 6.08431 6.71569C5.55411 5.11874 4.45024 4.82456 4.0678 4.77413L0 4.75732V20.1721H15.6454V10.8005H3.73751V10.7921Z" fill="#6DA1BD" />
<path d="M17.2883 4.74048H17.2014H5.78027C6.21487 5.07668 6.64077 5.6062 6.91891 6.4467C7.28397 7.55616 7.13621 8.67403 6.5017 9.51453C6.37132 9.68263 6.22356 9.82551 6.06711 9.9684H17.2449C18.7659 9.9684 20.0002 8.7917 20.0002 7.35444C20.0002 5.91718 18.792 4.76569 17.297 4.74048H17.2883Z" fill="#6DA1BD" />
</g>
<defs>

</defs>
</symbol><clipPath id="icon-category-wallpaper_clip0_878_31089">
<rect width="20" height="20" fill="white" />
</clipPath><symbol viewBox="0 0 18 18" fill="none" id="icon-close">
<path fill-rule="evenodd" clip-rule="evenodd" d="M16.4697 17.5303L0.469727 1.53033L1.53039 0.469666L17.5304 16.4697L16.4697 17.5303Z" fill="#838383" />
<path fill-rule="evenodd" clip-rule="evenodd" d="M0.469733 16.4697L16.4697 0.469665L17.5304 1.53033L1.53039 17.5303L0.469733 16.4697Z" fill="#838383" />
</symbol><symbol viewBox="0 0 80 80" fill="none" id="icon-coler">
<path d="M39.9708 24.572C26.1529 24.572 11.2808 22.1437 11.2808 16.812C11.2808 11.4798 26.1526 9.05151 39.9708 9.05151C53.789 9.05151 68.6608 11.4798 68.6608 16.812C68.6608 22.1437 53.789 24.572 39.9708 24.572ZM39.9708 11.4804C22.979 11.4804 13.7097 15.0022 13.7097 16.812C13.7097 18.6213 22.9789 22.1431 39.9708 22.1431C56.9627 22.1431 66.2319 18.6213 66.2319 16.812C66.2319 15.0022 56.9627 11.4804 39.9708 11.4804Z" fill="#F25220" />
<path d="M39.9708 71.7385C26.1529 71.7385 11.2808 69.3101 11.2808 63.9785V16.8105C11.2808 16.1398 11.8245 15.5961 12.4952 15.5961C13.1659 15.5961 13.7097 16.1398 13.7097 16.8105V63.9785C13.7097 65.7878 22.9789 69.3095 39.9708 69.3095C56.9627 69.3095 66.2319 65.7878 66.2319 63.9785V16.8105C66.2319 16.1398 66.7757 15.5961 67.4464 15.5961C68.1171 15.5961 68.6608 16.1398 68.6608 16.8105V63.9785C68.6608 69.3101 53.789 71.7385 39.9708 71.7385Z" fill="#F25220" />
<path d="M69.567 31.584H67.4452C66.7745 31.584 66.2307 31.0402 66.2307 30.3695C66.2307 29.6988 66.7745 29.1551 67.4452 29.1551H69.567C71.2232 29.1551 72.5711 27.5794 72.5711 25.6427C72.5711 23.7059 71.2232 22.1303 69.567 22.1303H67.4452C66.7745 22.1303 66.2307 21.5866 66.2307 20.9159C66.2307 20.2452 66.7745 19.7014 67.4452 19.7014H69.567C72.5627 19.7014 75 22.3664 75 25.6427C75 28.919 72.5627 31.584 69.567 31.584Z" fill="#F25220" />
<path d="M12.4948 31.584H10.373C7.37721 31.584 4.93994 28.919 4.93994 25.6427C4.93994 22.3664 7.37721 19.7014 10.373 19.7014H12.4948C13.1655 19.7014 13.7092 20.2452 13.7092 20.9159C13.7092 21.5866 13.1655 22.1303 12.4948 22.1303H10.373C8.71675 22.1303 7.36886 23.7059 7.36886 25.6427C7.36886 27.5794 8.71674 29.1551 10.373 29.1551H12.4948C13.1655 29.1551 13.7092 29.6988 13.7092 30.3695C13.7092 31.0402 13.1655 31.584 12.4948 31.584Z" fill="#F25220" />
<path d="M42.6953 62.6437H37.2445C19.4315 62.6437 4.93994 46.0451 4.93994 25.6438C4.93994 24.9731 5.48371 24.4293 6.1544 24.4293C6.82508 24.4293 7.36886 24.9731 7.36886 25.6438C7.36886 44.7062 20.7712 60.2148 37.2445 60.2148H42.6953C59.1694 60.2148 72.5709 44.7062 72.5709 25.6438C72.5709 24.9731 73.1147 24.4293 73.7854 24.4293C74.4561 24.4293 74.9999 24.9731 74.9999 25.6438C74.9999 46.0451 60.5082 62.6437 42.6953 62.6437Z" fill="#F25220" />
<path d="M56.3551 46.3699C53.5034 46.3699 51.183 44.3111 51.183 41.7808V38.1315C51.183 36.8862 49.9004 35.8728 48.3242 35.8728C46.7474 35.8728 45.4647 36.8862 45.4647 38.1315V41.6824C45.4647 44.2673 43.0927 46.3701 40.177 46.3701C37.2612 46.3701 34.8892 44.2673 34.8892 41.6824V34.3204C34.8892 32.8148 33.3581 31.5897 31.4766 31.5897C29.5951 31.5897 28.0644 32.8148 28.0644 34.3204V42.0768C28.0644 44.4441 25.9 46.3701 23.2393 46.3701C20.5785 46.3701 18.4141 44.444 18.4141 42.0768V21.8926C18.4141 21.2219 18.9578 20.6781 19.6285 20.6781C20.2992 20.6781 20.843 21.2219 20.843 21.8926V42.0768C20.843 43.1051 21.9181 43.9412 23.2393 43.9412C24.5604 43.9412 25.6355 43.1051 25.6355 42.0768V34.3204C25.6355 31.4752 28.256 29.1608 31.4766 29.1608C34.6978 29.1608 37.3182 31.4752 37.3182 34.3204V41.6824C37.3182 42.9277 38.6008 43.9412 40.177 43.9412C41.7532 43.9412 43.0358 42.9277 43.0358 41.6824V38.1315C43.0358 35.5467 45.4084 33.4439 48.3242 33.4439C51.2399 33.4439 53.6119 35.5467 53.6119 38.1315V41.7808C53.6119 42.9722 54.8424 43.941 56.3551 43.941C57.8678 43.941 59.0982 42.9721 59.0982 41.7808V21.8926C59.0982 21.2219 59.642 20.6781 60.3127 20.6781C60.9834 20.6781 61.5271 21.2219 61.5271 21.8926V41.7808C61.5271 44.3111 59.2068 46.3699 56.3551 46.3699Z" fill="#F25220" />
</symbol><symbol viewBox="0 0 21 20" fill="none" id="icon-dangerous-close">
<path d="M20.75 10C20.75 15.5228 16.2728 20 10.75 20C5.22715 20 0.75 15.5228 0.75 10C0.75 4.47715 5.22715 0 10.75 0C16.2728 0 20.75 4.47715 20.75 10Z" fill="#F25220" />
<path fill-rule="evenodd" clip-rule="evenodd" d="M14.7561 7.40732L8.1564 14.007L6.74219 12.5928L13.3419 5.99311L14.7561 7.40732Z" fill="white" />
<path fill-rule="evenodd" clip-rule="evenodd" d="M13.3417 14.0069L6.74204 7.40726L8.15625 5.99304L14.7559 12.5927L13.3417 14.0069Z" fill="white" />
</symbol><symbol viewBox="0 0 18 18" id="icon-discount">
<path fill-rule="evenodd" clip-rule="evenodd" d="M4.74527 4.66262C4.83999 4.55901 4.97391 4.5 5.11429 4.5H17C17.2761 4.5 17.5 4.72386 17.5 5V14C17.5 14.2761 17.2761 14.5 17 14.5H5.11429C4.97391 14.5 4.83999 14.441 4.74527 14.3374L0.630986 9.83738C0.456338 9.64636 0.456338 9.35364 0.630986 9.16262L4.74527 4.66262ZM5.33462 5.5L1.67748 9.5L5.33462 13.5H16.5V5.5H5.33462Z" />
<path fill-rule="evenodd" clip-rule="evenodd" d="M8.5 8C8.77614 8 9 7.77614 9 7.5C9 7.22386 8.77614 7 8.5 7C8.22386 7 8 7.22386 8 7.5C8 7.77614 8.22386 8 8.5 8ZM8.5 9C9.32843 9 10 8.32843 10 7.5C10 6.67157 9.32843 6 8.5 6C7.67157 6 7 6.67157 7 7.5C7 8.32843 7.67157 9 8.5 9Z" />
<path fill-rule="evenodd" clip-rule="evenodd" d="M12.5 12C12.7761 12 13 11.7761 13 11.5C13 11.2239 12.7761 11 12.5 11C12.2239 11 12 11.2239 12 11.5C12 11.7761 12.2239 12 12.5 12ZM12.5 13C13.3284 13 14 12.3284 14 11.5C14 10.6716 13.3284 10 12.5 10C11.6716 10 11 10.6716 11 11.5C11 12.3284 11.6716 13 12.5 13Z" />
<path fill-rule="evenodd" clip-rule="evenodd" d="M13.7071 7.00008L8.00001 12.7072L7.29291 12.0001L13 6.29297L13.7071 7.00008Z" />
</symbol><symbol viewBox="0 0 19 18" fill="none" id="icon-eye">
<g clip-path="url(#icon-eye_clip0_719_22501)">
<path fill-rule="evenodd" clip-rule="evenodd" d="M9.97034 11.7043C11.4641 11.7043 12.675 10.4934 12.675 8.99963C12.675 7.50586 11.4641 6.29492 9.97034 6.29492C8.47657 6.29492 7.26562 7.50586 7.26562 8.99963C7.26562 10.4934 8.47657 11.7043 9.97034 11.7043ZM9.97034 12.7043C12.0164 12.7043 13.675 11.0457 13.675 8.99963C13.675 6.95358 12.0164 5.29492 9.97034 5.29492C7.92428 5.29492 6.26562 6.95358 6.26562 8.99963C6.26562 11.0457 7.92428 12.7043 9.97034 12.7043Z" fill="white" />
<path fill-rule="evenodd" clip-rule="evenodd" d="M18.0534 9.70568C13.7195 4.90498 6.14367 4.92598 1.77754 9.70777L1.03906 9.03349C5.79809 3.8214 14.061 3.79102 18.7957 9.03558L18.0534 9.70568Z" fill="white" />
<path fill-rule="evenodd" clip-rule="evenodd" d="M1.78253 8.29432C6.11647 13.095 13.6923 13.074 18.0584 8.29223L18.7969 8.96651C14.0378 14.1786 5.7749 14.209 1.04026 8.96442L1.78253 8.29432Z" fill="white" />
</g>
<defs>

</defs>
</symbol><clipPath id="icon-eye_clip0_719_22501">
<rect width="18" height="18" fill="white" transform="translate(0.96875)" />
</clipPath><symbol viewBox="0 0 48 48" id="icon-file-pdf">
<path d="M48 42V6C48 4.4087 47.3679 2.88258 46.2426 1.75736C45.1174 0.632141 43.5913 0 42 0H6C4.4087 0 2.88258 0.632141 1.75736 1.75736C0.632141 2.88258 0 4.4087 0 6V42C0 43.5913 0.632141 45.1174 1.75736 46.2426C2.88258 47.3679 4.4087 48 6 48H42C43.5913 48 45.1174 47.3679 46.2426 46.2426C47.3679 45.1174 48 43.5913 48 42Z" />
<path d="M7 29.2V18H11.848C12.8507 18 13.7147 18.1653 14.44 18.496C15.1653 18.816 15.7253 19.28 16.12 19.888C16.5147 20.496 16.712 21.2213 16.712 22.064C16.712 22.896 16.5147 23.616 16.12 24.224C15.7253 24.832 15.1653 25.3013 14.44 25.632C13.7147 25.952 12.8507 26.112 11.848 26.112H8.44L9.592 24.944V29.2H7ZM9.592 25.232L8.44 24H11.704C12.504 24 13.1013 23.8293 13.496 23.488C13.8907 23.1467 14.088 22.672 14.088 22.064C14.088 21.4453 13.8907 20.9653 13.496 20.624C13.1013 20.2827 12.504 20.112 11.704 20.112H8.44L9.592 18.88V25.232Z" fill="white" />
<path d="M18.5625 29.2V18H23.6505C24.8665 18 25.9385 18.2347 26.8665 18.704C27.7945 19.1627 28.5198 19.808 29.0425 20.64C29.5652 21.472 29.8265 22.4587 29.8265 23.6C29.8265 24.7307 29.5652 25.7173 29.0425 26.56C28.5198 27.392 27.7945 28.0427 26.8665 28.512C25.9385 28.9707 24.8665 29.2 23.6505 29.2H18.5625ZM21.1545 27.072H23.5225C24.2692 27.072 24.9145 26.9333 25.4585 26.656C26.0132 26.368 26.4398 25.9627 26.7385 25.44C27.0478 24.9173 27.2025 24.304 27.2025 23.6C27.2025 22.8853 27.0478 22.272 26.7385 21.76C26.4398 21.2373 26.0132 20.8373 25.4585 20.56C24.9145 20.272 24.2692 20.128 23.5225 20.128H21.1545V27.072Z" fill="white" />
<path d="M34.1813 23.04H39.5573V25.12H34.1813V23.04ZM34.3732 29.2H31.7812V18H40.2453V20.08H34.3732V29.2Z" fill="white" />
</symbol><symbol viewBox="0 0 18 18" fill="none" id="icon-info">
<path fill-rule="evenodd" clip-rule="evenodd" d="M9 15C12.3137 15 15 12.3137 15 9C15 5.68629 12.3137 3 9 3C5.68629 3 3 5.68629 3 9C3 12.3137 5.68629 15 9 15ZM9 16C12.866 16 16 12.866 16 9C16 5.13401 12.866 2 9 2C5.13401 2 2 5.13401 2 9C2 12.866 5.13401 16 9 16Z" fill="#EB5A1E" />
<path fill-rule="evenodd" clip-rule="evenodd" d="M8.5 11V5H9.5V11H8.5Z" fill="#EB5A1E" />
<path fill-rule="evenodd" clip-rule="evenodd" d="M8.5 13L8.5 12L9.5 12L9.5 13L8.5 13Z" fill="#EB5A1E" />
</symbol><symbol viewBox="0 0 24 24" id="icon-layout">
<path fill-rule="evenodd" clip-rule="evenodd" d="M3.25 20.75L3.25 3.25L20.4059 3.25L20.4059 9.14286L18.9059 9.14286L18.9059 4.75L4.75 4.75L4.75 19.25L18.9059 19.25L18.9059 14.064L21.3705 10.2589L22.6295 11.0744L20.4059 14.5074L20.4059 20.75L3.25 20.75Z" />
<path fill-rule="evenodd" clip-rule="evenodd" d="M12.75 4L12.75 20L11.25 20L11.25 4L12.75 4Z" />
<path fill-rule="evenodd" clip-rule="evenodd" d="M12 12.75L4 12.75L4 11.25L12 11.25L12 12.75Z" />
</symbol><symbol viewBox="0 0 46 36" fill="none" id="icon-mail">
<path fill-rule="evenodd" clip-rule="evenodd" d="M22.192 23.4183L0.544922 9.57216L2.16142 7.04492L23.0002 20.3741L43.839 7.04492L45.4555 9.57216L23.8085 23.4183C23.3157 23.7335 22.6847 23.7335 22.192 23.4183Z" fill="#D2D4D8" />
<path fill-rule="evenodd" clip-rule="evenodd" d="M43 3H3L3 33H43V3ZM3 0C1.34315 0 0 1.34315 0 3V33C0 34.6569 1.34315 36 3 36H43C44.6569 36 46 34.6569 46 33V3C46 1.34315 44.6569 0 43 0H3Z" fill="#D2D4D8" />
</symbol><symbol id="icon-minus">
<path fill-rule="evenodd" clip-rule="evenodd" d="M1 8H17V10H1V8Z" />
</symbol><symbol viewBox="0 0 21 20" fill="none" id="icon-order">
<path d="M20.75 10C20.75 15.5228 16.2728 20 10.75 20C5.22715 20 0.75 15.5228 0.75 10C0.75 4.47715 5.22715 0 10.75 0C16.2728 0 20.75 4.47715 20.75 10Z" fill="#6DA1BD" />
<path fill-rule="evenodd" clip-rule="evenodd" d="M15.25 6H6.25L6.25 14H15.25V6ZM6.25 4C5.14543 4 4.25 4.89543 4.25 6V14C4.25 15.1046 5.14543 16 6.25 16H15.25C16.3546 16 17.25 15.1046 17.25 14V6C17.25 4.89543 16.3546 4 15.25 4H6.25Z" fill="white" />
<path fill-rule="evenodd" clip-rule="evenodd" d="M8.75 4.797H12.75V11.156L10.7518 9.22264L8.75 11.1369V4.797Z" fill="white" />
</symbol><symbol viewBox="0 0 18 18" id="icon-orders">
<path fill-rule="evenodd" clip-rule="evenodd" d="M3.5 1.5H14.5V16.5H3.5V1.5ZM4.5 2.5V15.5H13.5V2.5H4.5Z" />
<path d="M6 4H10V5H6V4Z" />
<path d="M6 7H12V8H6V7Z" />
<path d="M6 10H12V11H6V10Z" />
<path d="M6 13H12V14H6V13Z" />
</symbol><symbol viewBox="0 0 21 20" fill="none" id="icon-pay">
<path d="M20.5625 10C20.5625 15.5228 16.0853 20 10.5625 20C5.03965 20 0.5625 15.5228 0.5625 10C0.5625 4.47715 5.03965 0 10.5625 0C16.0853 0 20.5625 4.47715 20.5625 10Z" fill="#F2C94C" />
<path fill-rule="evenodd" clip-rule="evenodd" d="M15.6602 7.03162H5.46484L5.46484 12.9683H15.6602V7.03162ZM5.46484 5.03162C4.36027 5.03162 3.46484 5.92705 3.46484 7.03162V12.9683C3.46484 14.0729 4.36027 14.9683 5.46484 14.9683H15.6602C16.7647 14.9683 17.6602 14.0729 17.6602 12.9683V7.03162C17.6602 5.92705 16.7647 5.03162 15.6602 5.03162H5.46484Z" fill="white" />
<path fill-rule="evenodd" clip-rule="evenodd" d="M16.7688 10.2983H4.38672V8.29834H16.7688V10.2983Z" fill="white" />
</symbol><symbol viewBox="0 0 30 30" id="icon-pen">
<path d="M30 15C30 23.2843 23.2843 30 15 30C6.71573 30 0 23.2843 0 15C0 6.71573 6.71573 0 15 0C23.2843 0 30 6.71573 30 15Z" />
<path d="M18.6211 8.51122L21.1895 5.94281L25.0004 9.75368L22.432 12.3221L18.6211 8.51122Z" fill="white" />
<path d="M7.60491 19.5271L7 23.9428L11.4158 23.3379L21.8937 12.86L18.083 9.04932L7.60491 19.5271Z" fill="white" />
</symbol><symbol fill="none" id="icon-phone">
<g clip-path="url(#icon-phone_clip0_543_10783)">
<circle cx="12" cy="12" r="11.25" stroke="#6DA1BD" stroke-width="1.5" />
<path d="M16.4302 13.8122L16.3017 13.6974C15.8094 13.2514 14.7959 12.6929 13.5389 13.9493C13.3523 14.1362 12.8898 13.9401 12.6994 13.8478C12.1599 13.5628 11.6688 13.1943 11.2443 12.756C10.8059 12.3316 10.4375 11.8405 10.1525 11.3011C10.0603 11.1106 9.86542 10.6472 10.051 10.4616C11.3085 9.20421 10.7484 8.19082 10.3029 7.69856L10.1881 7.56999C9.59683 6.90809 8.60611 5.79397 7.56494 6.03305C6.95921 6.16925 6.50748 6.73233 6.22248 7.70529C5.53344 10.0598 6.44122 12.4466 8.99771 15.0024C11.0039 17.0093 12.9062 18 14.7704 18C15.2867 17.9991 15.8004 17.924 16.2955 17.7773C17.2686 17.4925 17.8316 17.0408 17.9679 16.435C18.2029 15.3926 17.0931 14.4031 16.4302 13.8122Z" fill="#6DA1BD" />
</g>
<defs>

</defs>
</symbol><clipPath id="icon-phone_clip0_543_10783">
<rect width="24" height="24" fill="white" />
</clipPath><symbol viewBox="0 0 19 18" fill="none" id="icon-phone-outline">
<path fill-rule="evenodd" clip-rule="evenodd" d="M15.2204 11.7307V13.3839C15.2216 13.6942 15.0893 13.9907 14.8558 14.2005C14.6223 14.4103 14.3093 14.514 13.9937 14.486C12.2621 14.3018 10.5989 13.7223 9.13756 12.7943C7.77798 11.9482 6.62529 10.8194 5.76136 9.48789C4.81038 8.05027 4.21857 6.4135 4.03387 4.71016C4.00544 4.40205 4.11055 4.09642 4.32353 3.86793C4.53651 3.63944 4.83774 3.50913 5.15364 3.50884H6.84174C7.40662 3.5034 7.88809 3.9089 7.96715 4.45667C8.0384 4.98573 8.17053 5.5052 8.36104 6.00516C8.51563 6.40792 8.41675 6.86196 8.10782 7.16791L7.39319 7.86776C8.19423 9.24737 9.36065 10.3897 10.7694 11.1741L11.484 10.4743C11.7964 10.1717 12.2601 10.0749 12.6713 10.2263C13.1818 10.4129 13.7123 10.5423 14.2525 10.6121C14.8183 10.6902 15.2345 11.1713 15.2204 11.7307Z" stroke="#F25220" stroke-linecap="round" stroke-linejoin="round" />
</symbol><symbol viewBox="0 0 64 80" fill="none" id="icon-phone-video">
<path d="M38.1561 80H8.44253C4.22488 80 0.794922 76.57 0.794922 72.3524V7.64761C0.794922 3.42997 4.22488 0 8.44253 0H38.1561C42.3738 0 45.8038 3.42997 45.8038 7.64761V18.3777C45.8038 18.92 45.3643 19.3608 44.8206 19.3608C44.277 19.3608 43.8375 18.9207 43.8375 18.3777L43.8382 7.64761C43.8382 4.51443 41.2886 1.96552 38.1561 1.96552L8.44248 1.96621C5.3093 1.96621 2.76039 4.51459 2.76039 7.6483V72.3531C2.76039 75.4863 5.31 78.0352 8.44248 78.0352L38.1561 78.0345C41.2893 78.0345 43.8382 75.4861 43.8382 72.3524V63.3425C43.8382 62.8002 44.2776 62.3593 44.8213 62.3593C45.365 62.3593 45.8044 62.7995 45.8044 63.3425V72.3524C45.8038 76.57 42.3731 80 38.1561 80Z" fill="#F25220" />
<path d="M23.3004 5.29733C20.9591 5.29733 19.0547 3.39271 19.0547 1.05212H21.0202C21.0202 2.30949 22.0431 3.33163 23.3004 3.33163C24.5564 3.33163 25.5785 2.30875 25.5785 1.05212H27.544C27.544 3.39271 25.6394 5.29733 23.3002 5.29733H23.3004Z" fill="#F25220" />
<path d="M25.911 74.8225H21.4636C20.9199 74.8225 20.4805 74.3823 20.4805 73.8393C20.4805 73.297 20.9199 72.8562 21.4636 72.8562H25.911C26.4547 72.8562 26.8941 73.2963 26.8941 73.8393C26.8934 74.3823 26.454 74.8225 25.911 74.8225Z" fill="#F25220" />
<path d="M45.1612 58.0438C35.212 58.0438 27.1172 49.9492 27.1172 39.9998C27.1172 30.0504 35.2118 21.9575 45.1612 21.9575C55.1098 21.9575 63.2035 30.0515 63.2035 39.9998C63.2035 49.9483 55.1096 58.0438 45.1612 58.0438ZM45.1612 23.9215C36.2945 23.9215 29.0831 31.1338 29.0831 39.9989C29.0831 48.8656 36.2961 56.0771 45.1612 56.0771C54.0265 56.0771 61.2375 48.8647 61.2375 39.9989C61.2375 31.1343 54.0258 23.9215 45.1612 23.9215Z" fill="#F25220" />
<path d="M55.2488 46.548C55.0288 46.548 54.8114 46.474 54.6339 46.332L51.147 43.5328V45.5656C51.147 46.1079 50.7076 46.5487 50.1639 46.5487L35.073 46.548C34.5293 46.548 34.0898 46.1079 34.0898 45.5649V35.3675C34.0898 34.8252 34.5293 34.3844 35.073 34.3844H50.1153C50.659 34.3844 51.0984 34.8245 51.0984 35.3675V36.9663L54.7025 34.5502C55.0042 34.348 55.3922 34.3288 55.7117 34.4988C56.0318 34.6695 56.2313 35.0027 56.2313 35.3654V45.5633C56.2313 45.9417 56.014 46.2859 55.674 46.4498C55.5389 46.5163 55.3942 46.5478 55.2489 46.5478L55.2488 46.548ZM36.0552 44.5825H49.1799V41.4837C49.1799 41.1053 49.3973 40.7611 49.7373 40.5972C50.0773 40.4341 50.4832 40.4793 50.778 40.7172L54.2648 43.5164V37.2097L50.6608 39.6257C50.3577 39.828 49.9711 39.8478 49.6516 39.6771C49.3314 39.5064 49.1319 39.1732 49.1319 38.8106V36.3527L36.0551 36.3514L36.0552 44.5825Z" fill="#F25220" />
</symbol><symbol viewBox="0 0 19 18" fill="none" id="icon-pin">
<path fill-rule="evenodd" clip-rule="evenodd" d="M9.62451 3.38867C7.29008 3.38867 5.35742 5.38068 5.35742 7.88876C5.35742 9.64109 6.44178 11.3275 7.61202 12.6232C8.18827 13.2612 8.76605 13.7832 9.20017 14.1458C9.36583 14.2841 9.51002 14.3988 9.6245 14.4874C9.73899 14.3988 9.88318 14.2841 10.0488 14.1458C10.483 13.7832 11.0607 13.2612 11.637 12.6232C12.8072 11.3275 13.8916 9.64109 13.8916 7.88876C13.8916 5.38068 11.9589 3.38867 9.62451 3.38867ZM9.62451 15.1111C9.33798 15.5209 9.33785 15.5208 9.33771 15.5207L9.33732 15.5204L9.33623 15.5197L9.33275 15.5172L9.32072 15.5087L9.2771 15.4773C9.23963 15.45 9.18574 15.4103 9.11776 15.3588C8.98184 15.2559 8.78936 15.1056 8.55913 14.9133C8.09942 14.5293 7.48543 13.9749 6.86991 13.2934C5.65661 11.9501 4.35742 10.0254 4.35742 7.88876C4.35742 4.8739 6.69336 2.38867 9.62451 2.38867C12.5557 2.38867 14.8916 4.8739 14.8916 7.88876C14.8916 10.0254 13.5924 11.9501 12.3791 13.2934C11.7636 13.9749 11.1496 14.5293 10.6899 14.9133C10.4597 15.1056 10.2672 15.2559 10.1313 15.3588C10.0633 15.4103 10.0094 15.45 9.97191 15.4773L9.92829 15.5087L9.91626 15.5172L9.91278 15.5197L9.91169 15.5204L9.91131 15.5207C9.91116 15.5208 9.91103 15.5209 9.62451 15.1111ZM9.62451 15.1111L9.91103 15.5209C9.73896 15.6412 9.51005 15.6412 9.33798 15.5209L9.62451 15.1111Z" fill="#F25220" />
<path fill-rule="evenodd" clip-rule="evenodd" d="M9.62418 6.72217C9.04495 6.72217 8.53516 7.22176 8.53516 7.88887C8.53516 8.55597 9.04495 9.05556 9.62418 9.05556C10.2034 9.05556 10.7132 8.55597 10.7132 7.88887C10.7132 7.22176 10.2034 6.72217 9.62418 6.72217ZM7.53516 7.88887C7.53516 6.71499 8.44823 5.72217 9.62418 5.72217C10.8001 5.72217 11.7132 6.71499 11.7132 7.88887C11.7132 9.06275 10.8001 10.0556 9.62418 10.0556C8.44823 10.0556 7.53516 9.06275 7.53516 7.88887Z" fill="#F25220" />
</symbol><symbol viewBox="0 0 71 97" fill="none" id="icon-pin-big">
<path d="M66.6417 19.3895C64.0982 14.0713 60.2184 9.50288 55.381 6.13009C50.5436 2.7573 44.9138 0.695339 39.041 0.14542C36.6843 -0.0484735 34.3157 -0.0484735 31.959 0.14542C26.0862 0.695339 20.4564 2.7573 15.619 6.13009C10.7816 9.50288 6.90184 14.0713 4.35829 19.3895C1.53785 25.001 0.224855 31.2485 0.547988 37.5197C0.871122 43.791 2.8193 49.8707 6.20157 55.163L31.4254 94.7176C31.8627 95.4011 32.4652 95.9636 33.1773 96.3533C33.8893 96.7429 34.6881 96.9472 35.5 96.9472C36.3119 96.9472 37.1107 96.7429 37.8227 96.3533C38.5348 95.9636 39.1373 95.4011 39.5746 94.7176L64.7984 55.163C68.1807 49.8707 70.1289 43.791 70.452 37.5197C70.7751 31.2485 69.4621 25.001 66.6417 19.3895Z" fill="#F25220" />
<path d="M31.5984 51.5284H29.1973V30.9824H42.3995V33.3818H31.5984V51.5284Z" fill="white" />
<path d="M41.984 51.5504H39.5791C39.5821 48.143 40.9377 44.876 43.3484 42.4663C45.7591 40.0565 49.028 38.7009 52.4377 38.6969V41.0963C49.6648 41.0993 47.0065 42.202 45.0464 44.162C43.0864 46.1221 41.985 48.7794 41.984 51.5504Z" fill="white" />
<path d="M26.0795 42.9189C23.3214 42.9255 20.5925 42.3549 18.0684 41.2438L19.0348 39.0481C22.1533 40.4121 25.6015 40.8401 28.9592 40.2801C32.3169 39.7201 35.439 38.1962 37.9453 35.8942C41.1556 32.9498 43.1496 28.9134 43.5365 24.5762L45.9262 24.7874C45.4856 29.7434 43.2039 34.3549 39.5306 37.7136C35.8572 41.0722 31.0585 42.9347 26.0795 42.934V42.9189Z" fill="white" />
<path d="M47.6803 52.7278H17.3496V34.8755C17.3479 33.7274 17.5846 32.5915 18.0447 31.5395C18.5048 30.4875 19.1782 29.5424 20.0225 28.7638L35.5012 14.5785L53.6528 31.2122V46.6462C53.6649 48.2433 53.0431 49.78 51.9237 50.9199C50.8043 52.0598 49.2784 52.7099 47.6803 52.7278ZM19.7432 50.3284H47.6803C48.1566 50.321 48.6268 50.2199 49.0639 50.0308C49.5011 49.8417 49.8966 49.5683 50.228 49.2263C50.5593 48.8844 50.8199 48.4805 50.995 48.0377C51.17 47.595 51.256 47.1222 51.248 46.6462V32.2686L35.5012 17.8343L21.6459 30.5331C21.0481 31.0873 20.5717 31.7593 20.2468 32.5067C19.9219 33.2541 19.7556 34.0606 19.7583 34.8755L19.7432 50.3284Z" fill="white" />
</symbol><symbol id="icon-plus">
<path fill-rule="evenodd" clip-rule="evenodd" d="M1 8H17V10H1V8Z" />
<path fill-rule="evenodd" clip-rule="evenodd" d="M10 1L10 17L8 17L8 1L10 1Z" />
</symbol><symbol viewBox="0 0 8 16" fill="none" id="icon-scroll-arrow">
<path d="M6.91626 1.29175L1.16626 8.00008L6.91626 14.7084" stroke="#F25220" stroke-width="2" stroke-linecap="round" stroke-linejoin="round" />
</symbol><symbol viewBox="0 0 18 18" fill="none" id="icon-search">
<circle cx="7" cy="7" r="5" stroke="#838383" stroke-linecap="round" stroke-linejoin="round" />
<path d="M16 16L11 11" stroke="#838383" stroke-linecap="round" stroke-linejoin="round" />
</symbol><symbol viewBox="0 0 80 80" fill="none" id="icon-size">
<path d="M25.0599 26.47C18.0199 26.47 12.3199 32.17 12.3199 39.21C12.3199 42.67 13.7899 45.93 16.0999 48.23C18.3999 50.53 21.5999 51.94 25.1199 52.01C32.1599 52.01 37.8599 46.31 37.8599 39.27C37.7999 32.17 32.0999 26.47 25.0599 26.47ZM24.9999 49.7C19.2399 49.7 14.4999 44.96 14.4999 39.2C14.4999 33.44 19.2399 28.7 24.9999 28.7C27.9399 28.7 30.4999 29.85 32.4199 31.77C34.3399 33.69 35.4899 36.25 35.4899 39.19C35.5499 45.01 30.8199 49.75 24.9899 49.69L24.9999 49.7Z" fill="#EB5A1E" />
<path d="M74.85 68.07H79.97V56.29H50.02V52.71H53.86V38.89H50.02C50.02 35.05 49.06 31.4 47.4 28.2V18.73H39.21C35.11 15.91 30.25 14.25 25 14.25C18.34 14.25 12.07 16.81 7.34003 21.55C2.59003 26.28 0.0300293 32.55 0.0300293 39.21V57.39C0.0300293 59.18 0.730029 60.91 2.01003 62.19C3.29003 63.47 5.02003 64.17 6.81003 64.17H43.17C44.96 64.17 46.69 63.47 47.97 62.19C48.23 61.93 48.42 61.74 48.55 61.49H74.79L74.85 68.08V68.07ZM77.73 58.53V65.7H77.09V58.53H77.73ZM51.62 50.47H49.96V41.13H51.62V50.47ZM45.09 21.03V24.49C44.19 23.21 43.17 22.06 42.02 21.03H45.09ZM43.23 61.93L6.81003 61.87C5.66003 61.87 4.51003 61.36 3.67003 60.53C2.84003 59.7 2.33003 58.55 2.33003 57.39V39.21C2.33003 33.19 4.70003 27.5 8.99003 23.21C13.28 18.92 18.97 16.55 24.99 16.55C37.53 16.55 47.71 26.73 47.65 39.21L47.71 57.45C47.71 59.88 45.66 61.93 43.23 61.93ZM49.76 59.24C49.82 59.05 49.82 58.79 49.89 58.6H74.85V59.24H49.76Z" fill="#EB5A1E" />
</symbol><symbol viewBox="0 0 21 20" fill="none" id="icon-success">
<path d="M20.75 10C20.75 15.5228 16.2728 20 10.75 20C5.22715 20 0.75 15.5228 0.75 10C0.75 4.47715 5.22715 0 10.75 0C16.2728 0 20.75 4.47715 20.75 10Z" fill="#49DE6A" />
<path fill-rule="evenodd" clip-rule="evenodd" d="M16.3829 7.30517L9.21291 14.8525L5.10547 10.3344L6.58535 8.98901L9.24515 11.9148L14.9329 5.92767L16.3829 7.30517Z" fill="white" />
</symbol><symbol viewBox="0 0 19 18" fill="none" id="icon-tg">
<path d="M18.9678 1.33142L15.5074 15.6511C15.3446 16.3255 14.5915 16.673 13.974 16.3528L9.59748 14.0843L7.52806 17.4837C6.96499 18.4102 5.54014 18.0083 5.54014 16.925V13.1372C5.54014 12.8443 5.66221 12.565 5.87257 12.3606L14.4015 4.18571C14.3947 4.08353 14.2861 3.99503 14.1777 4.06984L4.00017 11.182L0.580581 9.41078C-0.21997 8.99519 -0.186045 7.83022 0.641615 7.46924L17.5025 0.0915743C18.3099 -0.262734 19.1785 0.466258 18.9681 1.33136L18.9678 1.33142Z" fill="#6DA1BD" />
</symbol><symbol viewBox="0 0 19 18" fill="none" id="icon-time">
<path fill-rule="evenodd" clip-rule="evenodd" d="M9.6243 3.76953C6.76202 3.76953 4.43555 6.10762 4.43555 8.99939C4.43555 11.8912 6.76202 14.2292 9.6243 14.2292C12.4866 14.2292 14.8131 11.8912 14.8131 8.99939C14.8131 6.10762 12.4866 3.76953 9.6243 3.76953ZM3.43555 8.99939C3.43555 5.56213 6.20296 2.76953 9.6243 2.76953C13.0456 2.76953 15.8131 5.56213 15.8131 8.99939C15.8131 12.4366 13.0456 15.2292 9.6243 15.2292C6.20296 15.2292 3.43555 12.4366 3.43555 8.99939Z" fill="#F25220" />
<path fill-rule="evenodd" clip-rule="evenodd" d="M10.125 5.06152V8.79338L12.0387 10.7209L11.3291 11.4255L9.27018 9.35172C9.17719 9.25805 9.125 9.13142 9.125 8.99944V5.06152H10.125Z" fill="#F25220" />
</symbol><symbol viewBox="0 0 80 80" fill="none" id="icon-trans">
<g clip-path="url(#icon-trans_clip0_424_9677)">
<path d="M50.3299 25.24C50.5499 25.02 50.6799 24.72 50.6799 24.4C50.6799 24.08 50.5499 23.78 50.3299 23.56C50.1099 23.34 49.8099 23.22 49.4899 23.22H16.2299C16.2299 23.22 16.1599 23.22 16.1399 23.22C16.1099 23.22 16.0699 23.22 16.0399 23.22H16.0299C15.3799 23.28 14.8999 23.86 14.9699 24.51C15.0299 25.12 15.5399 25.58 16.1299 25.58C16.1599 25.58 16.1999 25.58 16.2299 25.58H49.4899C49.7899 25.59 50.1099 25.46 50.3299 25.24Z" fill="#EB5A1E" />
<path d="M50.3399 30.79C50.5599 30.57 50.6899 30.26 50.6899 29.95C50.6899 29.64 50.5599 29.33 50.3399 29.11C50.1199 28.89 49.8099 28.78 49.4999 28.77H27.3199C27.3199 28.77 27.2499 28.77 27.2299 28.77C27.1899 28.77 27.1599 28.77 27.1199 28.77H27.1099C26.7999 28.8 26.5099 28.95 26.3099 29.19C26.1099 29.43 26.0099 29.74 26.0399 30.05C26.0999 30.66 26.6099 31.12 27.1899 31.12C27.2299 31.12 27.2599 31.12 27.2999 31.12H49.4799C49.7799 31.11 50.0999 31 50.3199 30.78L50.3399 30.79Z" fill="#EB5A1E" />
<path d="M66.1299 63.48C68.3099 63.48 70.0799 61.71 70.0799 59.53C70.0799 57.35 68.3099 55.58 66.1299 55.58C63.9499 55.58 62.1799 57.35 62.1799 59.53C62.1799 61.71 63.9499 63.48 66.1299 63.48ZM64.5299 59.53C64.5299 58.63 65.2299 57.93 66.1299 57.93C67.0299 57.93 67.7299 58.63 67.7299 59.53C67.7299 60.43 67.0299 61.13 66.1299 61.13C65.2299 61.13 64.5299 60.43 64.5299 59.53Z" fill="#EB5A1E" />
<path d="M79.78 38.0101L71.46 26.4801C71.24 26.1801 70.89 26.0001 70.52 26.0001H55.97V18.8601C55.97 18.2101 55.44 17.6801 54.79 17.6801H1.18C1.18 17.6801 1.11 17.6801 1.09 17.6801C1.06 17.6801 1.02 17.6801 0.99 17.6801H0.75V17.7401C0.3 17.9201 0 18.3601 0 18.8601V59.5301C0 60.1801 0.53 60.7101 1.18 60.7101H7.48C8.06 65.4701 12.07 69.0301 16.89 69.0301C22.13 69.0301 26.38 64.7701 26.38 59.5301C26.38 54.2901 22.12 50.0401 16.89 50.0401C12.07 50.0401 8.06 53.6001 7.48 58.3601H2.35V20.0301H53.61V58.3601H30.76C30.44 58.3701 30.14 58.4801 29.92 58.7001C29.7 58.9201 29.57 59.2201 29.57 59.5401C29.57 59.8601 29.7 60.1601 29.92 60.3801C30.14 60.6001 30.46 60.7301 30.76 60.7201H56.48C57.06 65.4801 61.07 69.0401 65.89 69.0401C70.71 69.0401 74.72 65.4801 75.3 60.7201H78.83C79.48 60.7201 80.01 60.1901 80.01 59.5401V38.7101C80.01 38.4601 79.94 38.2201 79.79 38.0101H79.78ZM77.65 47.7701V50.9701H75.38V47.7701H77.65ZM65.88 52.3901C69.82 52.3901 73.02 55.5901 73.02 59.5401C73.02 63.4901 69.82 66.6801 65.88 66.6801C61.94 66.6801 58.73 63.4801 58.73 59.5401C58.73 55.6001 61.93 52.3901 65.88 52.3901ZM63.11 43.1501H77.65V45.4201H74.21C74.21 45.4201 74.14 45.4201 74.09 45.4201C73.48 45.4801 73.02 45.9801 73.02 46.5901V52.1401C73.02 52.7901 73.55 53.3201 74.2 53.3201H77.65V58.3601H75.29C74.71 53.6001 70.7 50.0401 65.88 50.0401C61.06 50.0401 57.05 53.6001 56.47 58.3601H55.96V28.3501H61.93V41.9701C61.93 42.6201 62.46 43.1501 63.11 43.1501ZM64.29 40.8001V28.3601H69.89L77.65 39.1101V40.8001H64.29ZM9.75 59.5301C9.75 55.5901 12.95 52.3801 16.89 52.3801C20.83 52.3801 24.03 55.5801 24.03 59.5301C24.03 63.4801 20.83 66.6701 16.89 66.6701C12.95 66.6701 9.75 63.4701 9.75 59.5301Z" fill="#EB5A1E" />
<path d="M17.1399 63.48C19.3199 63.48 21.0899 61.71 21.0899 59.53C21.0899 57.35 19.3199 55.58 17.1399 55.58C14.9599 55.58 13.1899 57.35 13.1899 59.53C13.1899 61.71 14.9599 63.48 17.1399 63.48ZM15.5399 59.53C15.5399 58.63 16.2399 57.93 17.1399 57.93C18.0399 57.93 18.7399 58.63 18.7399 59.53C18.7399 60.43 18.0399 61.13 17.1399 61.13C16.2399 61.13 15.5399 60.43 15.5399 59.53Z" fill="#EB5A1E" />
</g>
<defs>

</defs>
</symbol><clipPath id="icon-trans_clip0_424_9677">
<rect width="80" height="80" fill="white" />
</clipPath><symbol viewBox="0 0 26 26" id="icon-trash">
<g clip-path="url(#icon-trash_clip0_534_13008)">
<path d="M21.4973 5.54559L20.7404 23.7088C20.7162 24.2854 20.2182 24.7621 19.6395 24.7621H6.43317C5.85454 24.7621 5.35654 24.2842 5.3323 23.7088L4.57543 5.54559C4.56133 5.20388 4.27287 4.93846 3.93117 4.95285C3.58975 4.96695 3.32432 5.25541 3.33843 5.59712L4.09529 23.7603C4.14682 24.9993 5.19093 26 6.43316 26H19.6395C20.8812 26 21.9256 25.0008 21.9774 23.7603L22.7343 5.59712C22.7484 5.25541 22.4829 4.96695 22.1415 4.95285C21.7998 4.93845 21.5114 5.20387 21.4973 5.54559Z" />
<path d="M12.623 8.04757V22.0793C12.623 22.4213 12.9003 22.6986 13.2423 22.6986C13.584 22.6986 13.8612 22.4213 13.8612 22.0793V8.04757C13.8612 7.70558 13.584 7.42835 13.2423 7.42835C12.9003 7.42835 12.623 7.70558 12.623 8.04757Z" />
<path d="M7.87723 8.066L8.29004 22.0978C8.29983 22.4398 8.58512 22.7086 8.92682 22.6986C9.26853 22.6885 9.53741 22.4032 9.52733 22.0615L9.1148 8.02972C9.10473 7.68773 8.81944 7.41885 8.47773 7.42893C8.13603 7.43901 7.86715 7.72429 7.87723 8.066Z" />
<path d="M16.9558 8.02915L16.5432 22.0609C16.5332 22.4026 16.802 22.6879 17.1438 22.698C17.4855 22.7081 17.7707 22.4392 17.7805 22.0972L18.1933 8.06542C18.2034 7.72372 17.9345 7.43843 17.5928 7.42836C17.2511 7.41828 16.9658 7.68715 16.9558 8.02915Z" />
<path d="M2.71854 3.50788H23.3535C23.6955 3.50788 23.9724 3.23066 23.9724 2.88895C23.9724 2.54696 23.6955 2.26974 23.3535 2.26974H2.71854C2.37655 2.26974 2.09961 2.54696 2.09961 2.88895C2.09961 3.23066 2.37655 3.50788 2.71854 3.50788Z" />
<path d="M9.48378 2.91242L9.92538 1.80815C10.0428 1.51423 10.4508 1.23787 10.766 1.23787H15.3058C15.623 1.23787 16.0281 1.51222 16.1464 1.80815L16.588 2.91242L17.7378 2.45239L17.2959 1.34842C16.9896 0.582127 16.1294 0 15.3058 0H10.766C9.94462 0 9.08135 0.584102 8.77587 1.34842L8.33398 2.45239L9.48378 2.91242Z" />
</g>
<defs>

</defs>
</symbol><clipPath id="icon-trash_clip0_534_13008">
<rect width="26" height="26" fill="white" />
</clipPath><symbol viewBox="0 0 27 26" fill="none" id="icon-trash-recovery">
<g clip-path="url(#icon-trash-recovery_clip0_780_27656)">
<path d="M22.0578 5.54557L21.301 23.7088C21.2768 24.2854 20.7788 24.7621 20.2001 24.7621H6.99372C6.41508 24.7621 5.91709 24.2842 5.89284 23.7088L5.13598 5.54557C5.12188 5.20386 4.83342 4.93844 4.49171 4.95283C4.15029 4.96694 3.88487 5.25539 3.89897 5.5971L4.65584 23.7603C4.70737 24.9993 5.75148 26 6.9937 26H20.2001C21.4417 26 22.4861 25.0007 22.5379 23.7603L23.2948 5.5971C23.3089 5.25539 23.0435 4.96693 22.7021 4.95283C22.3604 4.93844 22.0719 5.20385 22.0578 5.54557Z" fill="black" />
<path d="M3.27909 3.50786H23.914C24.256 3.50786 24.533 3.23064 24.533 2.88893C24.533 2.54694 24.256 2.26971 23.914 2.26971H3.27909C2.93709 2.26971 2.66016 2.54694 2.66016 2.88893C2.66016 3.23064 2.93709 3.50786 3.27909 3.50786Z" fill="black" />
<path d="M10.0443 2.91242L10.4859 1.80815C10.6034 1.51423 11.0113 1.23787 11.3265 1.23787H15.8663C16.1836 1.23787 16.5886 1.51222 16.7069 1.80815L17.1485 2.91242L18.2983 2.45239L17.8564 1.34842C17.5501 0.582127 16.69 0 15.8664 0H11.3265C10.5052 0 9.64189 0.584102 9.33642 1.34842L8.89453 2.45239L10.0443 2.91242Z" fill="black" />
<path fill-rule="evenodd" clip-rule="evenodd" d="M16.9665 10.0352C15.053 8.12161 11.9504 8.12161 10.0369 10.0352L9.18835 9.18665C11.5705 6.80445 15.4329 6.80445 17.8151 9.18665C20.1973 11.5688 20.1973 15.4312 17.8151 17.8134C15.4329 20.1956 11.5705 20.1955 9.18835 17.8134L10.0369 16.9648C11.9504 18.8784 15.053 18.8784 16.9665 16.9648C18.8801 15.0513 18.8801 11.9487 16.9665 10.0352Z" fill="black" />
<path fill-rule="evenodd" clip-rule="evenodd" d="M8.83199 10.3048L8.96998 6.97928L9.96912 7.02074L9.87259 9.34716L12.199 9.44369L12.1576 10.4428L8.83199 10.3048Z" fill="black" />
</g>
<defs>

</defs>
</symbol><clipPath id="icon-trash-recovery_clip0_780_27656">
<rect width="26" height="26" fill="white" transform="translate(0.5625)" />
</clipPath><symbol viewBox="0 0 48 72" fill="none" id="icon-trash2">
<path d="M18.9534 5.24781H29.1863C29.1863 -0.536055 18.9534 -0.536055 18.9534 5.24781ZM1.15587 11.2543H46.9831C48.5405 10.3645 48.0957 6.8052 46.5382 6.8052H1.60124C-0.178385 6.8052 -0.623257 10.3644 1.15632 11.2543H1.15587ZM45.2026 12.8117H2.71286V69.9837C2.71286 70.6513 3.38049 71.3184 4.04761 71.3184H43.8678C44.7577 71.3184 45.2026 70.6508 45.2026 69.9837V12.8117ZM9.83108 17.9285C9.83108 15.259 14.2802 15.259 14.2802 17.9285V65.0905C14.2802 67.9826 9.83108 67.9826 9.83108 65.0905V17.9285ZM22.2891 17.9285C22.2891 15.259 26.516 15.259 26.516 17.9285V65.0905C26.516 67.9826 22.2891 67.9826 22.2891 65.0905V17.9285ZM34.5243 17.9285C34.5243 15.259 38.9735 15.259 38.9735 17.9285V65.0905C38.9735 67.9826 34.5243 67.9826 34.5243 65.0905V17.9285Z" fill="white" />
</symbol><symbol viewBox="0 0 24 24" id="icon-user">
<path fill-rule="evenodd" clip-rule="evenodd" d="M12 10.5C13.933 10.5 15.5 8.933 15.5 7C15.5 5.067 13.933 3.5 12 3.5C10.067 3.5 8.5 5.067 8.5 7C8.5 8.933 10.067 10.5 12 10.5ZM12 12C14.7614 12 17 9.76142 17 7C17 4.23858 14.7614 2 12 2C9.23858 2 7 4.23858 7 7C7 9.76142 9.23858 12 12 12Z" />
<path fill-rule="evenodd" clip-rule="evenodd" d="M4.25 19C4.25 14.7198 7.71979 11.25 12 11.25C16.2802 11.25 19.75 14.7198 19.75 19V20C19.75 20.9665 18.9665 21.75 18 21.75H6C5.0335 21.75 4.25 20.9665 4.25 20V19ZM12 12.75C8.54822 12.75 5.75 15.5482 5.75 19V20C5.75 20.1381 5.86193 20.25 6 20.25H18C18.1381 20.25 18.25 20.1381 18.25 20V19C18.25 15.5482 15.4518 12.75 12 12.75Z" />
</symbol><symbol fill="none" viewBox="0 0 73 81" id="icon-vector-blue"><path d="M49.558 53.093c0-15.412-12.397-27.906-27.69-27.906-.46 0-.918.011-1.374.034l-.249-2.372-3.154-3.573h-.128a9.4 9.4 0 0 1-3.88-.832 9.467 9.467 0 0 1-3.2-2.362 9.556 9.556 0 0 1-1.959-3.475 9.607 9.607 0 0 1-.373-3.98H0V0h67a6 6 0 0 1 6 6v75h-7.692v-7.097a9.408 9.408 0 0 1-4.83-.335 9.473 9.473 0 0 1-4.036-2.695 9.579 9.579 0 0 1-2.188-4.353 9.623 9.623 0 0 1 .23-4.874l-1.405-1.598-4.12-1.162c.399-1.905.6-3.846.599-5.793Z" fill="#75A3BC" /></symbol><symbol viewBox="0 0 31 31" fill="none" id="icon-vector-orange">
<path d="M31 0C13.8786 0 0 13.8786 0 31L25 31C28.3137 31 31 28.3137 31 25L31 0Z" fill="#F25220" />
</symbol><symbol viewBox="0 0 19 18" fill="none" id="icon-viber">
<path d="M10.9491 0.735107H7.61914C4.36414 0.735107 1.61914 3.33011 1.61914 6.39761V9.01511C1.61914 11.5576 2.38414 13.2076 3.95914 14.0551V15.7801C3.95914 16.3651 4.31164 16.8901 4.84414 17.1151C5.03164 17.1976 5.21914 17.2351 5.41414 17.2351C5.78164 17.2351 6.14914 17.0926 6.42664 16.8226L8.64664 14.6776H10.9491C14.0766 14.6776 16.6191 12.1351 16.6191 9.01511V6.39761C16.6191 3.27011 14.0766 0.735107 10.9491 0.735107ZM12.7341 11.0176C12.6216 11.1676 12.4866 11.3326 12.3516 11.4976C11.9616 11.9476 11.3241 12.1126 10.7691 11.8801C9.50164 11.3626 7.98664 10.3126 7.02664 9.42761C6.24664 8.70011 5.31664 7.00511 4.76164 5.91011C4.46914 5.32511 4.63414 4.62011 5.15914 4.21511L5.59414 3.87761C5.90914 3.63761 6.35914 3.70511 6.58414 4.02761L7.43914 5.23511C7.64164 5.52761 7.58914 5.92511 7.31164 6.15011L7.07914 6.34511C6.87664 6.51761 6.78664 6.78761 6.84664 7.04261C6.95914 7.46261 7.25914 8.07761 7.79914 8.65511C8.45164 9.35261 9.02164 9.58511 9.37414 9.66011C9.60664 9.70511 9.83914 9.61511 9.99664 9.44261L10.2291 9.18011C10.4616 8.88761 10.8816 8.82761 11.1816 9.04511L12.5841 10.0576C12.8991 10.2826 12.9591 10.7101 12.7341 11.0176ZM9.49414 6.36011C9.49414 6.15011 9.65914 5.98511 9.86914 5.98511C10.7691 5.98511 11.3691 6.58511 11.3691 7.48511C11.3691 7.69511 11.2041 7.86011 10.9941 7.86011C10.7841 7.86011 10.6191 7.69511 10.6191 7.48511C10.6191 7.00511 10.3566 6.73511 9.86914 6.73511C9.65914 6.73511 9.49414 6.57011 9.49414 6.36011ZM12.4941 7.86011C12.2841 7.86011 12.1191 7.69511 12.1191 7.48511C12.1191 6.35261 11.0016 5.23511 9.86914 5.23511C9.65914 5.23511 9.49414 5.07011 9.49414 4.86011C9.49414 4.65011 9.65914 4.48511 9.86914 4.48511C11.4141 4.48511 12.8691 5.94011 12.8691 7.48511C12.8691 7.69511 12.7041 7.86011 12.4941 7.86011ZM13.9941 7.86011C13.7841 7.86011 13.6191 7.69511 13.6191 7.48511C13.6191 5.70761 12.0816 3.73511 9.86914 3.73511C9.65914 3.73511 9.49414 3.57011 9.49414 3.36011C9.49414 3.15011 9.65914 2.98511 9.86914 2.98511C12.5241 2.98511 14.3691 5.35511 14.3691 7.48511C14.3691 7.69511 14.2041 7.86011 13.9941 7.86011Z" fill="#6DA1BD" />
</symbol><symbol viewBox="0 0 26 16" fill="none" id="icon-vk">
<path d="M25.8621 14.4498C25.8306 14.3766 25.8013 14.3159 25.774 14.2672C25.3229 13.3909 24.4609 12.3154 23.1884 11.0402L23.1615 11.011L23.1481 10.9966L23.1345 10.982H23.1208C22.5433 10.3882 22.1776 9.98892 22.0245 9.78451C21.7442 9.39512 21.6815 9.00098 21.8346 8.60162C21.9428 8.2999 22.3492 7.66268 23.053 6.68912C23.4231 6.17316 23.7163 5.75964 23.9328 5.44809C25.4942 3.20916 26.1711 1.77845 25.9634 1.1554L25.8828 1.0098C25.8286 0.922148 25.6887 0.841959 25.4634 0.768828C25.2375 0.695851 24.9488 0.683782 24.5967 0.732417L20.6981 0.761464C20.635 0.737326 20.5448 0.739576 20.4273 0.768828C20.31 0.798081 20.2513 0.812759 20.2513 0.812759L20.1834 0.849324L20.1295 0.893253C20.0844 0.922301 20.0348 0.973391 19.9806 1.04642C19.9267 1.11919 19.8816 1.2046 19.8455 1.30192C19.4211 2.47974 18.9385 3.57481 18.3969 4.58709C18.063 5.1907 17.7563 5.71382 17.4762 6.15675C17.1965 6.59952 16.9619 6.92575 16.7725 7.13486C16.5828 7.34418 16.4117 7.51187 16.2579 7.63855C16.1045 7.76527 15.9873 7.81882 15.9062 7.79923C15.8249 7.77964 15.7483 7.76021 15.6758 7.74077C15.5495 7.65312 15.448 7.53391 15.3714 7.38305C15.2945 7.23218 15.2427 7.0423 15.2156 6.81354C15.1887 6.58464 15.1728 6.38775 15.1682 6.22221C15.164 6.05687 15.1659 5.823 15.1751 5.52127C15.1845 5.21939 15.1887 5.01513 15.1887 4.90805C15.1887 4.5381 15.1954 4.13659 15.2088 3.70343C15.2225 3.27027 15.2335 2.92706 15.2428 2.67422C15.252 2.42113 15.2562 2.15336 15.2562 1.87106C15.2562 1.58877 15.2403 1.36738 15.2088 1.20669C15.1777 1.04621 15.13 0.890441 15.067 0.739423C15.0037 0.588558 14.9111 0.471855 14.7895 0.389007C14.6677 0.306262 14.5163 0.240597 14.3361 0.191809C13.8577 0.0750551 13.2486 0.0118965 12.5084 0.00207753C10.8299 -0.0173559 9.75134 0.0995513 9.27303 0.352646C9.08351 0.459581 8.91202 0.60569 8.75868 0.790512C8.59619 1.00474 8.57353 1.12165 8.69083 1.14088C9.23239 1.22838 9.61578 1.4377 9.84143 1.76863L9.92274 1.94399C9.98599 2.07051 10.0491 2.29451 10.1124 2.61567C10.1755 2.93683 10.2162 3.29211 10.2341 3.68129C10.2792 4.39199 10.2792 5.00036 10.2341 5.50644C10.1889 6.01273 10.1463 6.40687 10.1055 6.68917C10.0648 6.97147 10.0039 7.20022 9.92274 7.37538C9.84143 7.55058 9.78733 7.65767 9.76021 7.69654C9.73314 7.73541 9.71057 7.7599 9.69264 7.76952C9.57534 7.818 9.45334 7.8427 9.32708 7.8427C9.20063 7.8427 9.04729 7.77448 8.86683 7.63814C8.68642 7.5018 8.49918 7.31452 8.30511 7.076C8.11105 6.83743 7.89218 6.50404 7.64843 6.07579C7.40486 5.64754 7.15214 5.1414 6.89042 4.55738L6.67388 4.13383C6.53851 3.86135 6.35359 3.4646 6.11894 2.94394C5.88415 2.42307 5.67661 1.91924 5.4962 1.43253C5.42409 1.22812 5.31575 1.0725 5.17137 0.965413L5.10361 0.921483C5.05857 0.882616 4.98626 0.841346 4.88707 0.797365C4.78774 0.753435 4.68409 0.721932 4.57571 0.70255L0.866541 0.731598C0.487513 0.731598 0.230338 0.824214 0.0949232 1.00919L0.0407288 1.09669C0.0136553 1.14543 0 1.22326 0 1.3304C0 1.43749 0.0270735 1.56892 0.0812679 1.72454C0.622738 3.09716 1.21157 4.42093 1.84778 5.69607C2.48398 6.97121 3.03683 7.99837 3.50599 8.77663C3.97525 9.55545 4.45357 10.2905 4.94094 10.9814C5.42831 11.6726 5.75091 12.1155 5.90875 12.3101C6.06679 12.505 6.19092 12.6508 6.28115 12.7481L6.61964 13.0985C6.83622 13.3321 7.15428 13.612 7.57394 13.938C7.9937 14.2642 8.4584 14.5854 8.9683 14.902C9.47828 15.2181 10.0716 15.476 10.7485 15.6755C11.4253 15.8752 12.0841 15.9554 12.7249 15.9167H14.2817C14.5975 15.8873 14.8367 15.7802 14.9992 15.5954L15.0531 15.5222C15.0893 15.4641 15.1232 15.3739 15.1545 15.2524C15.1862 15.1307 15.2019 14.9967 15.2019 14.8509C15.1927 14.4324 15.2222 14.0553 15.2897 13.7195C15.3572 13.3838 15.4341 13.1307 15.5201 12.9602C15.6061 12.7899 15.7031 12.6462 15.8111 12.5297C15.9193 12.413 15.9964 12.3423 16.0416 12.3179C16.0865 12.2934 16.1224 12.2768 16.1495 12.2668C16.3661 12.189 16.621 12.2644 16.9146 12.4933C17.2079 12.7221 17.4831 13.0045 17.7404 13.3402C17.9977 13.6762 18.3067 14.0532 18.6676 14.4716C19.0288 14.8903 19.3446 15.2015 19.6152 15.4062L19.8858 15.5814C20.0666 15.6983 20.3012 15.8054 20.5901 15.9027C20.8784 16 21.131 16.0243 21.3479 15.9757L24.8133 15.9174C25.1561 15.9174 25.4228 15.8562 25.612 15.7347C25.8015 15.6131 25.9141 15.479 25.9504 15.3332C25.9867 15.1873 25.9886 15.0217 25.9573 14.8365C25.9252 14.6519 25.8936 14.5227 25.8621 14.4498Z" fill="#6DA1BD" />
</symbol><symbol viewBox="0 0 21 20" fill="none" id="icon-wait">
<path d="M20.2734 10C20.2734 15.5228 15.7963 20 10.2734 20C4.75059 20 0.273438 15.5228 0.273438 10C0.273438 4.47715 4.75059 0 10.2734 0C15.7963 0 20.2734 4.47715 20.2734 10Z" fill="#838383" />
<path fill-rule="evenodd" clip-rule="evenodd" d="M10.2734 15C13.0349 15 15.2734 12.7614 15.2734 10C15.2734 7.23858 13.0349 5 10.2734 5C7.51201 5 5.27344 7.23858 5.27344 10C5.27344 12.7614 7.51201 15 10.2734 15ZM10.2734 17C14.1394 17 17.2734 13.866 17.2734 10C17.2734 6.13401 14.1394 3 10.2734 3C6.40744 3 3.27344 6.13401 3.27344 10C3.27344 13.866 6.40744 17 10.2734 17Z" fill="white" />
<path fill-rule="evenodd" clip-rule="evenodd" d="M9.15234 6.5658H11.1523V9.39897H12.7844V11.399H9.15234V6.5658Z" fill="white" />
</symbol><symbol viewBox="0 0 17 16" fill="none" id="icon-whats">
<path d="M15.7119 4.09963C14.7212 2.43667 13.1096 1.19477 11.2014 0.62385C9.29317 0.0529293 7.22997 0.195365 5.42699 1.02249C3.62401 1.84962 2.21507 3.30005 1.48371 5.08189C0.752346 6.86374 0.752843 8.84474 1.4851 10.6262C1.66472 11.07 1.87858 11.5003 2.12491 11.9137C2.23488 12.1008 2.35485 12.2823 2.48435 12.4576C2.58203 12.7328 2.59452 13.0293 2.5203 13.3112C2.41246 14.1236 2.30463 14.9085 2.1968 15.7209C3.18886 15.4524 4.18811 15.2114 5.18018 14.9429C5.36061 14.9101 5.54728 14.9343 5.71215 15.0118C7.40217 15.73 9.30073 15.8617 11.0812 15.3842C12.8617 14.9067 14.4127 13.8499 15.4674 12.3956C16.3316 11.1797 16.8139 9.75211 16.8572 8.28187C16.9005 6.81162 16.503 5.36028 15.7119 4.09963ZM13.1023 10.5436L12.0671 11.5488C11.1254 12.4231 9.34253 11.8448 7.21462 9.80698C5.08672 7.76913 4.48286 6.0411 5.40303 5.15298L6.43823 4.1616C6.47361 4.12766 6.51564 4.10075 6.56189 4.08238C6.60815 4.06402 6.65773 4.05456 6.70781 4.05456C6.75788 4.05456 6.80747 4.06402 6.85373 4.08238C6.89998 4.10075 6.94201 4.12766 6.97739 4.1616L8.41516 5.53852C8.45059 5.57241 8.4787 5.61265 8.49788 5.65695C8.51706 5.70125 8.52693 5.74874 8.52693 5.79669C8.52693 5.84465 8.51706 5.89213 8.49788 5.93643C8.4787 5.98073 8.45059 6.02098 8.41516 6.05486L7.58126 6.7984C7.73125 7.44393 8.09118 8.02726 8.60926 8.46448C9.05843 8.97249 9.66553 9.32953 10.3418 9.4834L11.1541 8.71233C11.1884 8.67774 11.2296 8.6502 11.2754 8.63138C11.3211 8.61257 11.3703 8.60286 11.4201 8.60286C11.4699 8.60286 11.5191 8.61257 11.5649 8.63138C11.6106 8.6502 11.6518 8.67774 11.6861 8.71233L13.1239 10.0892C13.1733 10.1566 13.198 10.2377 13.1941 10.32C13.1902 10.4022 13.1579 10.4809 13.1023 10.5436Z" fill="#6DA1BD" />
</symbol><symbol viewBox="0 0 26 18" fill="none" id="icon-yt">
<path d="M12.9919 0C12.9919 0 4.86588 7.45802e-06 2.82634 0.524284C1.73431 0.826135 0.835099 1.7157 0.529971 2.81191C1.20745e-05 4.82956 0 9.00795 0 9.00795C0 9.00795 1.20745e-05 13.2022 0.529971 15.1881C0.835099 16.2843 1.71825 17.158 2.82634 17.4598C4.88194 18 12.9919 18 12.9919 18C12.9919 18 21.1341 18 23.1736 17.4757C24.2817 17.1739 25.1648 16.3161 25.4539 15.204C25.9999 13.2022 26 9.02384 26 9.02384C26 9.02384 26.016 4.82956 25.4539 2.81191C25.1648 1.7157 24.2817 0.842043 23.1736 0.556074C21.1341 2.54058e-05 12.9919 0 12.9919 0ZM10.4064 5.14747L17.1674 9.00795L10.4064 12.8525V5.14747Z" fill="#6DA1BD" />
</symbol><symbol viewBox="0 0 218 33" fill="none" id="logo">
<path d="M44.8991 31.6859H44.5378V8.65964H44.9339C45.8782 8.65964 46.8108 8.64802 47.7318 8.62478C49.633 8.58359 50.6501 8.56141 50.8244 8.56141C52.826 8.52402 54.8193 8.82945 56.718 9.46446C58.2454 9.96777 59.632 10.8256 60.7643 11.9677C61.7528 12.9971 62.5205 14.2177 63.0203 15.5545C63.5224 16.9418 63.7724 18.4076 63.7586 19.8828C63.7586 23.3282 62.6073 26.1693 60.3048 28.4064C58.0023 30.6434 54.7545 31.763 50.5614 31.7651C49.6382 31.7651 48.7384 31.7535 47.8617 31.7302C47.0062 31.7081 46.0207 31.6859 44.8991 31.6859ZM50.7578 11.1818C50.3649 11.1818 49.766 11.1977 48.9644 11.2294C48.1627 11.2611 47.6209 11.2801 47.3357 11.2801V29.0654C47.9061 29.0654 48.4606 29.0654 48.9992 29.0654C49.5379 29.0654 49.9498 29.0876 50.2001 29.1003H50.6596C53.8409 29.1003 56.3314 28.2553 58.1312 26.5654C59.9309 24.8755 60.8202 22.6374 60.7991 19.8511C60.7991 17.2613 59.932 15.1658 58.1977 13.5646C56.4634 11.9634 53.9835 11.1734 50.7578 11.1945V11.1818Z" fill="#1C1B19" />
<path d="M67.5451 23.0735C67.5128 21.8912 67.7339 20.7157 68.1935 19.6259C68.6531 18.5361 69.3407 17.5574 70.2099 16.7553C71.9864 15.0442 74.2572 14.1887 77.0224 14.1887C79.7432 14.1887 81.9929 15.0115 83.7715 16.6571C85.5502 18.3026 86.45 20.4414 86.4712 23.0735C86.4712 25.6886 85.5713 27.8285 83.7715 29.4931C82.0161 31.1598 79.7664 31.9931 77.0224 31.9931C74.2784 31.9931 72.0075 31.1703 70.2099 29.5248C68.4333 27.8792 67.5451 25.7288 67.5451 23.0735ZM70.5077 23.0735C70.4903 23.9117 70.6481 24.7444 70.9712 25.5181C71.2942 26.2918 71.7752 26.9896 72.3835 27.5666C72.9945 28.1657 73.7206 28.6349 74.5178 28.9459C75.3151 29.2568 76.1671 29.4031 77.0224 29.3758C78.9996 29.3758 80.5691 28.7833 81.7309 27.5983C82.3194 27.0079 82.7808 26.3033 83.0865 25.5278C83.3922 24.7523 83.5359 23.9225 83.5085 23.0893C83.5388 22.2522 83.3867 21.4185 83.0628 20.6459C82.7389 19.8734 82.2509 19.1805 81.6327 18.6153C81.0211 18.0272 80.2983 17.5671 79.5067 17.2619C78.715 16.9567 77.8704 16.8124 77.0224 16.8377C75.2905 16.7874 73.6094 17.4267 72.3487 18.6153C71.7449 19.1866 71.2688 19.8792 70.9515 20.6475C70.6343 21.4159 70.483 22.2426 70.5077 23.0735Z" fill="#1C1B19" />
<path d="M94.1709 31.6856H91.373V14.4199H94.2058L101.018 22.6805L107.536 14.4199H110.201V31.6856H107.416V18.6659L101.018 26.5652H100.622L94.1709 18.7641V31.6856Z" fill="#1C1B19" />
<path d="M122.543 31.686H122.181V8.65972H122.574C123.519 8.65972 124.451 8.6481 125.372 8.62486C127.273 8.58367 128.29 8.56149 128.468 8.56149C130.465 8.52518 132.454 8.83059 134.349 9.46454C135.877 9.9686 137.264 10.8263 138.398 11.9677C139.385 12.9982 140.151 14.2186 140.651 15.5546C141.156 16.9413 141.407 18.4074 141.393 19.8829C141.393 23.3282 140.24 26.1694 137.936 28.4065C135.631 30.6435 132.384 31.7631 128.195 31.7652C127.272 31.7652 126.372 31.7536 125.496 31.7303C124.619 31.7071 123.635 31.6923 122.543 31.686ZM128.401 11.1819C128.005 11.1819 127.406 11.1978 126.608 11.2295C125.809 11.2611 125.261 11.2802 124.979 11.2802V29.0655C125.55 29.0655 126.101 29.0655 126.64 29.0655C127.178 29.0655 127.59 29.0877 127.841 29.1004H128.303C131.484 29.1004 133.975 28.2554 135.775 26.5655C137.574 24.8756 138.463 22.6375 138.44 19.8512C138.44 17.2614 137.572 15.1659 135.838 13.5647C134.104 11.9635 131.625 11.1735 128.401 11.1946V11.1819Z" fill="#1C1B19" />
<path d="M158.088 31.6856H146.634V14.4199H157.825V17.053H149.431V21.6602H157.001V24.2933H149.431V29.0652H158.088V31.6856Z" fill="#1C1B19" />
<path d="M176.586 27.9468L177.673 30.0539C176.936 30.7148 176.057 31.1982 175.104 31.4671C173.987 31.8213 172.821 31.9988 171.65 31.9931C168.773 31.9931 166.457 31.1819 164.704 29.5596C162.951 27.9373 162.073 25.7753 162.071 23.0735C162.071 20.5386 162.904 18.4325 164.571 16.7553C166.24 15.0442 168.555 14.1887 171.517 14.1887C173.91 14.1887 175.841 14.7591 177.309 15.8998L176.026 18.0069C174.656 17.215 173.099 16.8057 171.517 16.8218C169.588 16.8218 168.02 17.3922 166.811 18.5329C165.603 19.6736 165.01 21.1871 165.034 23.0735C165.034 24.962 165.659 26.4871 166.91 27.649C168.16 28.8108 169.828 29.3811 171.913 29.36C173.582 29.4068 175.222 28.911 176.586 27.9468Z" fill="#1C1B19" />
<path d="M180.008 23.0735C179.977 21.8913 180.198 20.716 180.658 19.6264C181.117 18.5367 181.805 17.5579 182.673 16.7553C184.45 15.0442 186.722 14.1887 189.489 14.1887C192.207 14.1887 194.456 15.0115 196.235 16.6571C198.013 18.3026 198.913 20.4414 198.934 23.0735C198.934 25.6886 198.035 27.8285 196.235 29.4931C194.479 31.1661 192.229 32.0026 189.482 32.0026C186.736 32.0026 184.464 31.1798 182.667 29.5343C180.897 27.8824 180.01 25.7288 180.008 23.0735ZM182.971 23.0735C182.954 23.9117 183.111 24.7444 183.434 25.5181C183.757 26.2918 184.238 26.9896 184.847 27.5666C185.459 28.1625 186.185 28.6285 186.981 28.9367C187.778 29.2449 188.629 29.3889 189.482 29.36C191.458 29.36 193.026 28.7675 194.188 27.5824C194.776 26.9921 195.238 26.2875 195.543 25.512C195.849 24.7365 195.993 23.9066 195.965 23.0735C195.996 22.2363 195.845 21.4024 195.521 20.6297C195.197 19.8571 194.708 19.1643 194.09 18.5994C193.478 18.0118 192.756 17.5519 191.965 17.2467C191.174 16.9415 190.33 16.797 189.482 16.8218C188.625 16.7962 187.771 16.9401 186.969 17.2451C186.167 17.5501 185.433 18.0103 184.809 18.5994C184.203 19.1725 183.726 19.8677 183.409 20.639C183.092 21.4103 182.943 22.2401 182.971 23.0735Z" fill="#1C1B19" />
<path d="M206.634 25.4439V31.686H203.84V14.4203C204.606 14.4203 205.418 14.4087 206.273 14.3855C207.129 14.3622 208.028 14.3517 208.973 14.3538C213.724 14.3538 216.099 16.1747 216.099 19.8165C216.146 20.9875 215.785 22.1386 215.079 23.0738C214.405 23.9266 213.466 24.53 212.411 24.788L218 31.686H214.435L209.534 25.4439H206.634ZM209.103 16.9869C208.51 16.9869 207.689 17.0091 206.634 17.0534V22.814H209.302C210.273 22.8464 211.227 22.558 212.018 21.9933C212.364 21.7547 212.646 21.4344 212.838 21.0607C213.03 20.687 213.127 20.2716 213.12 19.8513C213.12 17.9417 211.781 16.9869 209.103 16.9869Z" fill="#1C1B19" />
<path d="M11.9583 31.0336H9.94312V13.7773H21.0237V15.7926H11.9583V31.0336Z" fill="#1C1B19" />
<path d="M20.6751 31.052H18.6567C18.6593 28.1902 19.797 25.4463 21.8203 23.4224C23.8436 21.3985 26.5872 20.2599 29.449 20.2566V22.2718C27.1217 22.2743 24.8905 23.2004 23.2455 24.8467C21.6004 26.4929 20.676 28.7247 20.6751 31.052Z" fill="#75A3BC" />
<path d="M7.32583 23.8027C5.01094 23.8083 2.72053 23.329 0.602051 22.3959L1.41321 20.5517C4.03058 21.6973 6.92464 22.0568 9.74273 21.5864C12.5608 21.1161 15.1813 19.8362 17.2848 17.9028C19.9791 15.4299 21.6527 12.0397 21.9775 8.39697L23.9832 8.57441C23.6134 12.7369 21.6983 16.6099 18.6153 19.4308C15.5322 22.2517 11.5047 23.816 7.32583 23.8154V23.8027Z" fill="#F25220" />
<path d="M25.4566 32.0409H7.51706e-06V17.0471C-0.00140846 16.0828 0.197233 15.1288 0.583376 14.2453C0.969518 13.3617 1.53476 12.5679 2.24338 11.914L15.2347 0L30.4693 13.9704V26.9331C30.4795 28.2745 29.9576 29.5652 29.0181 30.5225C28.0785 31.4799 26.7979 32.0259 25.4566 32.0409ZM2.0089 30.0257H25.4566C25.8563 30.0195 26.2509 29.9346 26.6178 29.7758C26.9847 29.6169 27.3167 29.3874 27.5948 29.1001C27.8729 28.8129 28.0917 28.4737 28.2386 28.1018C28.3855 27.73 28.4576 27.3329 28.4509 26.9331V14.8576L15.2347 2.73451L3.60588 13.4C3.10414 13.8655 2.70432 14.4299 2.43164 15.0576C2.15895 15.6853 2.01933 16.3627 2.02158 17.0471L2.0089 30.0257Z" fill="#1C1B19" />
</symbol></defs><use id="icon-accept-usage" xlink:href="#icon-accept" class="sprite-symbol-usage" /><use id="icon-accept-second-usage" xlink:href="#icon-accept-second" class="sprite-symbol-usage" /><use id="icon-arrow-down-usage" xlink:href="#icon-arrow-down" class="sprite-symbol-usage" /><use id="icon-attention-usage" xlink:href="#icon-attention" class="sprite-symbol-usage" /><use id="icon-attention-fill-usage" xlink:href="#icon-attention-fill" class="sprite-symbol-usage" /><use id="icon-basket-usage" xlink:href="#icon-basket" class="sprite-symbol-usage" /><use id="icon-camera-usage" xlink:href="#icon-camera" class="sprite-symbol-usage" /><use id="icon-cascad-usage" xlink:href="#icon-cascad" class="sprite-symbol-usage" /><use id="icon-category-carpet-usage" xlink:href="#icon-category-carpet" class="sprite-symbol-usage" /><use id="icon-category-door-usage" xlink:href="#icon-category-door" class="sprite-symbol-usage" /><use id="icon-category-dye-usage" xlink:href="#icon-category-dye" class="sprite-symbol-usage" /><use id="icon-category-facade-usage" xlink:href="#icon-category-facade" class="sprite-symbol-usage" /><use id="icon-category-furniture-usage" xlink:href="#icon-category-furniture" class="sprite-symbol-usage" /><use id="icon-category-lepnina-usage" xlink:href="#icon-category-lepnina" class="sprite-symbol-usage" /><use id="icon-category-plaster-usage" xlink:href="#icon-category-plaster" class="sprite-symbol-usage" /><use id="icon-category-wallpaper-usage" xlink:href="#icon-category-wallpaper" class="sprite-symbol-usage" /><use id="icon-close-usage" xlink:href="#icon-close" class="sprite-symbol-usage" /><use id="icon-coler-usage" xlink:href="#icon-coler" class="sprite-symbol-usage" /><use id="icon-dangerous-close-usage" xlink:href="#icon-dangerous-close" class="sprite-symbol-usage" /><use id="icon-discount-usage" xlink:href="#icon-discount" class="sprite-symbol-usage" /><use id="icon-eye-usage" xlink:href="#icon-eye" class="sprite-symbol-usage" /><use id="icon-file-pdf-usage" xlink:href="#icon-file-pdf" class="sprite-symbol-usage" /><use id="icon-info-usage" xlink:href="#icon-info" class="sprite-symbol-usage" /><use id="icon-layout-usage" xlink:href="#icon-layout" class="sprite-symbol-usage" /><use id="icon-mail-usage" xlink:href="#icon-mail" class="sprite-symbol-usage" /><use id="icon-minus-usage" xlink:href="#icon-minus" class="sprite-symbol-usage" /><use id="icon-order-usage" xlink:href="#icon-order" class="sprite-symbol-usage" /><use id="icon-orders-usage" xlink:href="#icon-orders" class="sprite-symbol-usage" /><use id="icon-pay-usage" xlink:href="#icon-pay" class="sprite-symbol-usage" /><use id="icon-pen-usage" xlink:href="#icon-pen" class="sprite-symbol-usage" /><use id="icon-phone-usage" xlink:href="#icon-phone" class="sprite-symbol-usage" /><use id="icon-phone-outline-usage" xlink:href="#icon-phone-outline" class="sprite-symbol-usage" /><use id="icon-phone-video-usage" xlink:href="#icon-phone-video" class="sprite-symbol-usage" /><use id="icon-pin-usage" xlink:href="#icon-pin" class="sprite-symbol-usage" /><use id="icon-pin-big-usage" xlink:href="#icon-pin-big" class="sprite-symbol-usage" /><use id="icon-plus-usage" xlink:href="#icon-plus" class="sprite-symbol-usage" /><use id="icon-scroll-arrow-usage" xlink:href="#icon-scroll-arrow" class="sprite-symbol-usage" /><use id="icon-search-usage" xlink:href="#icon-search" class="sprite-symbol-usage" /><use id="icon-size-usage" xlink:href="#icon-size" class="sprite-symbol-usage" /><use id="icon-success-usage" xlink:href="#icon-success" class="sprite-symbol-usage" /><use id="icon-tg-usage" xlink:href="#icon-tg" class="sprite-symbol-usage" /><use id="icon-time-usage" xlink:href="#icon-time" class="sprite-symbol-usage" /><use id="icon-trans-usage" xlink:href="#icon-trans" class="sprite-symbol-usage" /><use id="icon-trash-usage" xlink:href="#icon-trash" class="sprite-symbol-usage" /><use id="icon-trash-recovery-usage" xlink:href="#icon-trash-recovery" class="sprite-symbol-usage" /><use id="icon-trash2-usage" xlink:href="#icon-trash2" class="sprite-symbol-usage" /><use id="icon-user-usage" xlink:href="#icon-user" class="sprite-symbol-usage" /><use id="icon-vector-blue-usage" xlink:href="#icon-vector-blue" class="sprite-symbol-usage" /><use id="icon-vector-orange-usage" xlink:href="#icon-vector-orange" class="sprite-symbol-usage" /><use id="icon-viber-usage" xlink:href="#icon-viber" class="sprite-symbol-usage" /><use id="icon-vk-usage" xlink:href="#icon-vk" class="sprite-symbol-usage" /><use id="icon-wait-usage" xlink:href="#icon-wait" class="sprite-symbol-usage" /><use id="icon-whats-usage" xlink:href="#icon-whats" class="sprite-symbol-usage" /><use id="icon-yt-usage" xlink:href="#icon-yt" class="sprite-symbol-usage" /><use id="logo-usage" xlink:href="#logo" class="sprite-symbol-usage" /></svg>